<svg xmlns="http://www.w3.org/2000/svg" viewBox="0 0 1075.14 985.42"><g id="Camada_2" data-name="Camada 2"><g id="Camada_1-2" data-name="Camada 1"><path d="M0,474.15c47.13,2.93,93.06,3.13,138.14,9.43,36.26,5.07,58.71,30.55,62.32,58.73,3.74,29.16-7.12,51.22-31.56,66.86-5.84,3.74-12.17,6.71-19.59,10.76,13.49,4.49,26,7.68,37.77,12.77,29.88,13,48.5,34.65,50.09,68.58s-14.6,58.29-43.93,72.36c-17.38,8.33-37.12,15.08-56.13,16.05-45.17,2.3-90.53.74-137.1.74C0,686.63,0,583.13,0,474.15Zm34.73,310c26.88,0,52.9.22,78.9-.14a118.76,118.76,0,0,0,22.62-3c35.75-7.55,58.26-33.8,60.14-69.71,2.06-39.32-15.74-70.22-52.85-77.74-35.09-7.11-71.79-6.29-108.82-9C34.73,680.35,34.73,731.34,34.73,784.1Zm-.81-162.72c27.06-1.48,51.78-1,75.9-4.59,35.19-5.21,54.25-29.95,53.8-65.17-.44-34.26-21.35-60.62-54.89-65.2-21.5-2.94-43.54-2.22-65.34-2.23-3.16,0-9,5.1-9.06,7.9C33.74,534,33.92,576,33.92,621.38Z"/><path d="M562.14,666.59H376.56c-12.14,52.28,25.3,104,78.64,111.07,53.86,7.11,95.62-11.19,123.42-58.33,11.63-19.73,24.43-39.45,31.65-60.88,5.32-15.82,2.87-34.39,3.13-51.75.39-25.87,1.43-27.66,29.31-38.19v40.32c6.55-5.36,10.94-9,15.37-12.58,24.06-19.56,51.32-31.24,82.57-31.43,38.14-.24,67.67,24.12,69.32,62.14,2.34,53.93.59,108,.59,163.2h-29c0-19.6.07-38.6,0-57.6-.14-33.34.54-66.72-.8-100-1.65-41-29.83-61.83-70.21-53.28-32,6.78-57.8,23.07-74.39,51.71-15.86,27.39-30.35,55.57-46.09,83-30,52.35-73,83.3-135.85,80.21-49.61-2.44-92.77-34.05-107-78.24-14.12-43.89.18-94.75,34.83-121.62,32.24-25,69.7-31.63,108.67-25C534.36,576.73,560.81,613.85,562.14,666.59Zm-185.31-8.68c45,0,90.14.73,135.2-.43,14.05-.36,21.53-11.61,23.19-25.62,1.72-14.51-3.1-26.74-13.11-37.22-20-21-60.54-28.08-90-15.61C398.86,593.09,375.71,625.49,376.83,657.91Z"/><path d="M1030.9,756.15c-40,51.38-123.38,46-161.38-8.57-25.76-37-27.32-76.93-8.47-116.62,20.08-42.32,56.54-62,102.32-65.57,29.23-2.31,56,5,82,26V500.59c0-25.73,2.18-28.7,29.78-39.67V789.57H1046.3c-.3-5.72.07-101.16.07-143.44,0-53.23-67.37-92-113.1-65.71-65.35,37.58-67.17,151-1.89,189,25,14.56,51.37,12.38,77,.14C1015.41,766.17,1021.89,761.55,1030.9,756.15Z"/><path d="M303.69,790.69H274.34V499.08c0-28.06,0-28.06,29.35-40.32Z"/><path d="M642.06,642.89V790.15h-28.6c0-34-2.55-67.88,1.08-101.11,1.81-16.54,15-31.85,23-47.72Z"/><path d="M72.61,887v96.75H62.92V938.5H10.47v45.26H.77V887h9.7v43.46H62.93V887Z"/><path d="M108.67,980.09a34.51,34.51,0,0,1-13.43-13.57A41.49,41.49,0,0,1,90.33,946a40.86,40.86,0,0,1,5-20.55,34.82,34.82,0,0,1,13.56-13.57,41.33,41.33,0,0,1,38.55,0A34.33,34.33,0,0,1,161,925.42,41.49,41.49,0,0,1,165.91,946a41,41,0,0,1-5,20.49,34.48,34.48,0,0,1-13.7,13.63,39.68,39.68,0,0,1-19.37,4.77A38.39,38.39,0,0,1,108.67,980.09Zm33-7.06A26,26,0,0,0,152,962.79q3.94-6.85,3.94-16.82t-3.88-16.82a25.54,25.54,0,0,0-10.24-10.24,29.95,29.95,0,0,0-27.68,0A25.16,25.16,0,0,0,104,929.15Q100.14,936,100.14,946T104,962.79A25.25,25.25,0,0,0,114.06,973a28.54,28.54,0,0,0,13.77,3.39A28.91,28.91,0,0,0,141.68,973Z"/><path d="M196.21,916.35v46.92q0,6.91,2.64,9.56c1.74,1.75,4.84,2.63,9.27,2.63H217v8.3H206.6q-10.26,0-15.23-4.77t-5-15.71V916.36H175.85v-8.17h10.53v-19h9.82v19H217v8.17H196.21Z"/><path d="M301,949.71H238.29a30.29,30.29,0,0,0,4.16,14.67,24.46,24.46,0,0,0,9.82,9.21,28.69,28.69,0,0,0,13.29,3.12q9.4,0,15.84-4.57a21.4,21.4,0,0,0,8.52-12.31h10.24a31.91,31.91,0,0,1-11.83,18.06q-9.06,7-22.76,7a38.2,38.2,0,0,1-19.11-4.77,33.74,33.74,0,0,1-13.22-13.57A42.43,42.43,0,0,1,228.47,946a43.2,43.2,0,0,1,4.71-20.63,32.82,32.82,0,0,1,13.14-13.57,38.86,38.86,0,0,1,19.24-4.7,36.88,36.88,0,0,1,18.89,4.7,32.68,32.68,0,0,1,12.46,12.67,36.2,36.2,0,0,1,4.36,17.64C301.28,945.42,301.18,948,301,949.71Zm-12.95-22.29a22.87,22.87,0,0,0-9.61-9,29.32,29.32,0,0,0-13.29-3,26.46,26.46,0,0,0-18.42,6.92q-7.6,6.91-8.44,19.51h53.15A26.76,26.76,0,0,0,288.05,927.42Z"/><path d="M328.68,881.33V983.76H319V881.33Z"/><path d="M355.46,978.85a21.94,21.94,0,0,1-9.21-16.41h10a14.3,14.3,0,0,0,6,10.31q5.33,3.94,14.32,3.94,7.89,0,12.39-3.73a11.6,11.6,0,0,0,4.5-9.28,8.65,8.65,0,0,0-2.49-6.37,17.72,17.72,0,0,0-6.29-3.94,98.17,98.17,0,0,0-10.31-3.1,105.42,105.42,0,0,1-13.7-4.43,23.38,23.38,0,0,1-8.93-6.57c-2.45-2.91-3.67-6.8-3.67-11.71a17.37,17.37,0,0,1,3.33-10.24,22.64,22.64,0,0,1,9.41-7.47,33.2,33.2,0,0,1,13.84-2.76q12.17,0,19.65,6.16t8,17h-9.69a14.74,14.74,0,0,0-5.19-10.73q-4.79-4.08-13.08-4.08c-4.89,0-8.87,1.15-11.91,3.46a10.43,10.43,0,0,0-4.57,8.58,10.11,10.11,0,0,0,2.7,7.27,18.64,18.64,0,0,0,6.72,4.43q4,1.58,10.79,3.53a102,102,0,0,1,13,4.28,22.4,22.4,0,0,1,8.3,6.09c2.3,2.68,3.51,6.23,3.59,10.65a18.61,18.61,0,0,1-3.32,10.87,22.6,22.6,0,0,1-9.27,7.55,32.26,32.26,0,0,1-13.7,2.76Q363.69,984.87,355.46,978.85Z"/><path d="M532.83,983.76l-13.14-13.43a47.11,47.11,0,0,1-15.09,11.42,43.13,43.13,0,0,1-18.14,3.67,38.42,38.42,0,0,1-17.16-3.67,27.8,27.8,0,0,1-11.63-10.31,30.4,30.4,0,0,1,1.66-33.21q5.82-7.61,17-11.91a43.57,43.57,0,0,1-7.06-10,22.87,22.87,0,0,1-2.21-10,18.9,18.9,0,0,1,6.63-15q6.64-5.75,17.72-5.74,10.38,0,16.88,6t6.09,15.5h-9.69q.13-6.24-3.81-9.83a14.18,14.18,0,0,0-9.9-3.59,14.87,14.87,0,0,0-10.31,3.53,11.61,11.61,0,0,0-3.94,9.07,16.87,16.87,0,0,0,2.42,8.58,59,59,0,0,0,7.68,9.82l31.83,32.25a96.77,96.77,0,0,0,5.26-8.3l8.86-14.81H543.2L532.67,951.8a126.35,126.35,0,0,1-7.47,11.62l20.21,20.35H532.83Zm-31.76-10a39.61,39.61,0,0,0,12.25-10l-30.87-31.28q-19.24,7.07-19.24,23.25a20.07,20.07,0,0,0,3,10.87,21,21,0,0,0,8.24,7.55,25.51,25.51,0,0,0,12,2.76A32.66,32.66,0,0,0,501.07,973.8Z"/><path d="M648.13,983.76l-23.94-40.41H606.34v40.41h-9.7V887h29.07q16.2,0,24.57,7.75t8.38,20.35a27.5,27.5,0,0,1-6,17.93q-6,7.4-17.78,9.62l24.91,41.1Zm-41.8-48.3h19.51q11.35,0,17.1-5.54t5.74-14.81q0-9.55-5.53-14.75t-17.45-5.19H606.33Z"/><path d="M746,949.71H683.29a30.29,30.29,0,0,0,4.16,14.67,24.46,24.46,0,0,0,9.82,9.21,28.69,28.69,0,0,0,13.29,3.12q9.41,0,15.84-4.57a21.4,21.4,0,0,0,8.52-12.31h10.24a31.91,31.91,0,0,1-11.83,18.06q-9.06,7-22.76,7a38.2,38.2,0,0,1-19.11-4.77,33.74,33.74,0,0,1-13.22-13.57A42.43,42.43,0,0,1,673.47,946a43.2,43.2,0,0,1,4.71-20.63,32.82,32.82,0,0,1,13.14-13.57,38.86,38.86,0,0,1,19.24-4.7,36.88,36.88,0,0,1,18.89,4.7,32.68,32.68,0,0,1,12.46,12.67,36.2,36.2,0,0,1,4.36,17.64Q746.27,947.08,746,949.71Zm-13-22.29a22.87,22.87,0,0,0-9.61-9,29.32,29.32,0,0,0-13.29-3,26.46,26.46,0,0,0-18.42,6.92q-7.61,6.91-8.44,19.51h53.15A26.85,26.85,0,0,0,733.05,927.42Z"/><path d="M768.76,978.85a21.94,21.94,0,0,1-9.21-16.41h10a14.3,14.3,0,0,0,6,10.31q5.33,3.94,14.32,3.94,7.89,0,12.39-3.73a11.6,11.6,0,0,0,4.5-9.28,8.65,8.65,0,0,0-2.49-6.37,17.72,17.72,0,0,0-6.29-3.94,98.17,98.17,0,0,0-10.31-3.1,105.42,105.42,0,0,1-13.7-4.43,23.35,23.35,0,0,1-8.93-6.57c-2.45-2.91-3.67-6.8-3.67-11.71a17.37,17.37,0,0,1,3.33-10.24,22.64,22.64,0,0,1,9.41-7.47,33.2,33.2,0,0,1,13.84-2.76q12.16,0,19.65,6.16t8,17h-9.69a14.74,14.74,0,0,0-5.19-10.73q-4.79-4.08-13.08-4.08c-4.89,0-8.87,1.15-11.91,3.46a10.43,10.43,0,0,0-4.57,8.58,10.11,10.11,0,0,0,2.7,7.27,18.64,18.64,0,0,0,6.72,4.43q4,1.58,10.79,3.53a102,102,0,0,1,13,4.28,22.4,22.4,0,0,1,8.3,6.09q3.46,4,3.59,10.65A18.61,18.61,0,0,1,813,974.56a22.6,22.6,0,0,1-9.27,7.55,32.26,32.26,0,0,1-13.7,2.76Q777,984.87,768.76,978.85Z"/><path d="M848.49,980.09a34.51,34.51,0,0,1-13.43-13.57A41.49,41.49,0,0,1,830.15,946a40.86,40.86,0,0,1,5-20.55,34.82,34.82,0,0,1,13.56-13.57,41.33,41.33,0,0,1,38.55,0,34.33,34.33,0,0,1,13.57,13.57A41.49,41.49,0,0,1,905.73,946a41,41,0,0,1-5,20.49A34.48,34.48,0,0,1,887,980.09a39.68,39.68,0,0,1-19.37,4.77A38.44,38.44,0,0,1,848.49,980.09Zm33-7.06a26,26,0,0,0,10.31-10.24q3.95-6.85,3.94-16.82t-3.88-16.82a25.54,25.54,0,0,0-10.24-10.24,29.95,29.95,0,0,0-27.68,0,25.16,25.16,0,0,0-10.18,10.24Q840,936,840,946t3.81,16.82A25.25,25.25,0,0,0,853.88,973a28.54,28.54,0,0,0,13.77,3.39A28.91,28.91,0,0,0,881.5,973Z"/><path d="M942.89,910.67q6.57-3.87,16.12-3.87v10.1h-2.63q-10.53,0-16.88,5.68t-6.37,19v42.22h-9.7V908.19h9.7v13.43A23.68,23.68,0,0,1,942.89,910.67Z"/><path d="M986.14,916.35v46.92q0,6.91,2.64,9.56c1.74,1.75,4.84,2.63,9.27,2.63h8.86v8.3H996.53q-10.26,0-15.23-4.77t-5-15.71V916.36H965.78v-8.17h10.53v-19h9.82v19h20.76v8.17H986.14Z"/><path d="M1027.6,978.85a21.94,21.94,0,0,1-9.21-16.41h10a14.3,14.3,0,0,0,6,10.31q5.32,3.94,14.32,3.94,7.89,0,12.39-3.73a11.6,11.6,0,0,0,4.5-9.28,8.65,8.65,0,0,0-2.49-6.37,17.72,17.72,0,0,0-6.29-3.94,98.17,98.17,0,0,0-10.31-3.1,105.42,105.42,0,0,1-13.7-4.43,23.38,23.38,0,0,1-8.93-6.57c-2.45-2.91-3.67-6.8-3.67-11.71a17.37,17.37,0,0,1,3.33-10.24,22.64,22.64,0,0,1,9.41-7.47,33.2,33.2,0,0,1,13.84-2.76q12.17,0,19.65,6.16t8,17h-9.69a14.74,14.74,0,0,0-5.19-10.73q-4.78-4.08-13.08-4.08c-4.89,0-8.87,1.15-11.91,3.46a10.43,10.43,0,0,0-4.57,8.58,10.11,10.11,0,0,0,2.7,7.27,18.64,18.64,0,0,0,6.72,4.43q4,1.58,10.79,3.53a102,102,0,0,1,13,4.28,22.4,22.4,0,0,1,8.3,6.09q3.46,4,3.59,10.65a18.61,18.61,0,0,1-3.32,10.87,22.6,22.6,0,0,1-9.27,7.55,32.26,32.26,0,0,1-13.7,2.76Q1035.84,984.87,1027.6,978.85Z"/><path d="M787.25,234.32c-5.77-6.52-58.06-63.2-124.75-51.82-35.58,6.07-58.66,28.53-67.61,37.79a154.11,154.11,0,0,1-20.19-27.78A115.29,115.29,0,0,0,587.6,188c39-15.94,60-45.45,69.13-61.69,16-28.69,17.53-55,18.13-66.25a166.09,166.09,0,0,0-6.21-54.86L667.13,0l-5.32,1.29a147.59,147.59,0,0,0-62.15,31.65C597.23,35.06,540,85.75,550,155.33a119.76,119.76,0,0,0,8.19,29.36c-1.91.41-3.68.69-5.46,1a102.59,102.59,0,0,1-18.33,1.11c-3-.1-5.79-.36-8.46-.66l-1.06-.1c-2.84-.35-5.48-.8-7.88-1.3a118.89,118.89,0,0,0,8.19-29.36c10-69.59-47.28-120.28-49.7-122.39A147.68,147.68,0,0,0,413.29,1.3L408,0l-1.53,5.23a166.33,166.33,0,0,0-6.22,54.86c.62,11.24,2.13,37.56,18.14,66.25C427.49,142.6,448.5,172.1,487.5,188a119.75,119.75,0,0,0,12.91,4.48,155.45,155.45,0,0,1-20.19,27.78c-9-9.26-32-31.72-67.61-37.79-66.71-11.38-119,45.3-124.75,51.82l-3.41,3.95L288,242a129.06,129.06,0,0,0,59.12,35.82c44.39,12.21,81.8-4,95.84-11.53,16.31-8.8,26.64-19,33.46-25.73,1.14-1.14,2.36-2.28,3.65-3.57,33.61,39.47,40.59,90.07,44.84,120.42,2.8,20.4,4.1,29.75,12.75,29.75s9.87-9.34,12.75-29.75,7.22-49.73,19.81-78.79A213.67,213.67,0,0,1,595,237c1.29,1.29,2.51,2.43,3.65,3.57,6.84,6.76,17.15,16.93,33.45,25.73,14,7.51,51.45,23.74,95.85,11.53A129,129,0,0,0,787.08,242l3.58-3.71Zm-317.49-.51-1.37-1.3c-6.75,6.68-15.94,15.78-30.81,23.74-12.83,6.92-47,21.72-87.42,10.56A117,117,0,0,1,300,238c14-14.34,57.59-53.19,110.63-44.24,32.25,5.54,53.5,26.25,61.69,34.83-1.36,1.37-2.64,2.73-3.87,3.86ZM607.11,41.52a136.53,136.53,0,0,1,52-27.78,152.55,152.55,0,0,1,4.39,45.77c-.59,10.47-2,34.9-16.68,61.31-8.36,14.87-27.71,42-63.45,56.68a112.84,112.84,0,0,1-13.88,4.71,111.76,111.76,0,0,1-8.27-28.46c-9.2-63.6,43.7-110.26,45.9-112.23m-115.35,136c-35.74-14.64-55.08-41.81-63.42-56.68C413.61,94.4,412.25,70,411.64,59.5a152.6,152.6,0,0,1,4.41-45.77,136.48,136.48,0,0,1,52,27.78c2.21,2,55.1,48.64,45.92,112.22a112.61,112.61,0,0,1-8.28,28.46,112.38,112.38,0,0,1-13.89-4.7M567.06,259c-19.17,35.66-24.62,73.77-27.87,96.79l1.89.23-2,.16c-.46,3.26-.91,6.74-1.44,9.85-.52-3.26-1.06-6.84-1.52-10.24-4.1-29.75-11.77-84.83-48.19-127.1a163,163,0,0,0,23.91-33.38c1.7.4,3.54.79,5.5,1.15,1.18.22,2.46.39,3.71.59.84.13,1.65.25,2.52.36,1.49.19,3,.33,4.63.47.76.07,1.5.13,2.29.18,1.69.1,3.39.16,5.18.19l1,0c.51,0,1,0,1.5,0,1.25,0,2.43.06,3.73,0,.63,0,1.18-.1,1.81-.14,1.22-.07,2.37-.19,3.53-.3,1.42-.13,2.88-.22,4.22-.4,2.43-.3,4.67-.67,6.79-1.08l.34,0a0,0,0,0,0,0,0c1.63-.33,3.21-.65,4.65-1a163.24,163.24,0,0,0,23.89,33.38A148.66,148.66,0,0,0,567.06,259M725,266.81c-40.45,11.15-74.59-3.65-87.41-10.56-14.88-8-24-17.07-30.81-23.74l-1.37,1.3,1.29-1.38c-1.21-1.13-2.51-2.5-3.87-3.86,8.2-8.58,29.44-29.29,61.69-34.83,53-9,96.6,29.9,110.64,44.24A117.18,117.18,0,0,1,725,266.81"/></g></g></svg>