<?xml version="1.0" encoding="utf-8"?>
<!-- Generator: Adobe Illustrator 25.4.1, SVG Export Plug-In . SVG Version: 6.00 Build 0)  -->
<svg version="1.1" id="Camada_1" xmlns="http://www.w3.org/2000/svg" xmlns:xlink="http://www.w3.org/1999/xlink" x="0px" y="0px"
	 viewBox="0 0 1920 1080" style="enable-background:new 0 0 1920 1080;" xml:space="preserve">
<style type="text/css">
	.st0{fill:#FFFFFF;}
</style>
<g>
	<path class="st0" d="M422.43,523.45c47.13,2.93,93.06,3.13,138.14,9.43c36.26,5.07,58.71,30.55,62.32,58.73
		c3.74,29.16-7.12,51.22-31.56,66.86c-5.84,3.74-12.17,6.71-19.59,10.76c13.49,4.49,26.04,7.68,37.77,12.77
		c29.88,12.97,48.5,34.65,50.09,68.58c1.59,34.01-14.6,58.29-43.93,72.36c-17.38,8.33-37.12,15.08-56.13,16.05
		c-45.17,2.3-90.53,0.74-137.1,0.74C422.43,735.93,422.43,632.43,422.43,523.45z M457.16,833.4c26.88,0,52.9,0.22,78.9-0.14
		c7.56-0.11,15.19-1.41,22.62-2.98c35.75-7.55,58.26-33.8,60.14-69.71c2.06-39.32-15.74-70.22-52.85-77.74
		c-35.09-7.11-71.79-6.29-108.82-9.03C457.16,729.65,457.16,780.64,457.16,833.4z M456.35,670.68c27.06-1.48,51.78-1.02,75.9-4.59
		c35.19-5.21,54.25-29.95,53.8-65.17c-0.44-34.26-21.35-60.62-54.89-65.2c-21.5-2.94-43.54-2.22-65.34-2.23
		c-3.16,0-9.02,5.1-9.06,7.9C456.17,583.33,456.35,625.29,456.35,670.68z"/>
	<path class="st0" d="M984.57,715.89c-62.66,0-124.28,0-185.58,0c-12.14,52.28,25.3,104.03,78.64,111.07
		c53.86,7.11,95.62-11.19,123.42-58.33c11.63-19.73,24.43-39.45,31.65-60.88c5.32-15.82,2.87-34.39,3.13-51.75
		c0.39-25.87,1.43-27.66,29.31-38.19c0,12.72,0,25.04,0,40.32c6.55-5.36,10.94-8.99,15.37-12.58
		c24.06-19.56,51.32-31.24,82.57-31.43c38.14-0.24,67.67,24.12,69.32,62.14c2.34,53.93,0.59,108.03,0.59,163.2
		c-9.25,0-18.14,0-29.01,0c0-19.6,0.07-38.6-0.01-57.6c-0.14-33.34,0.54-66.72-0.8-100.01c-1.65-41.01-29.83-61.83-70.21-53.28
		c-32,6.78-57.8,23.07-74.39,51.71c-15.86,27.39-30.35,55.57-46.09,83.03c-30.01,52.35-72.97,83.3-135.85,80.21
		c-49.61-2.44-92.77-34.05-106.99-78.24c-14.12-43.89,0.18-94.75,34.83-121.62c32.24-24.99,69.7-31.63,108.67-25.02
		C956.79,626.03,983.24,663.15,984.57,715.89z M799.26,707.21c45.03,0,90.14,0.73,135.2-0.43c14.05-0.36,21.53-11.61,23.19-25.62
		c1.72-14.51-3.1-26.74-13.11-37.22c-20.04-20.99-60.54-28.08-90.02-15.61C821.29,642.39,798.14,674.79,799.26,707.21z"/>
	<path class="st0" d="M1453.33,805.45c-40.03,51.38-123.38,45.95-161.38-8.57c-25.76-36.96-27.32-76.93-8.47-116.62
		c20.08-42.32,56.54-61.95,102.32-65.57c29.23-2.31,55.96,4.97,81.99,25.95c0-33.25,0-62,0-90.75c0-25.73,2.18-28.7,29.78-39.67
		c0,109.33,0,218.31,0,328.65c-9.29,0-18.19,0-28.84,0c-0.3-5.72,0.07-101.16,0.07-143.44c0-53.23-67.37-92.01-113.1-65.71
		c-65.35,37.58-67.17,150.95-1.89,188.98c24.98,14.56,51.37,12.38,76.96,0.14C1437.84,815.47,1444.32,810.85,1453.33,805.45z"/>
	<path class="st0" d="M726.12,839.99c-9.72,0-18.3,0-29.35,0c0-6.87,0-13.18,0-19.48c0-90.71,0-181.42,0-272.13
		c0-28.06-0.01-28.06,29.35-40.32C726.12,618.47,726.12,728.35,726.12,839.99z"/>
	<path class="st0" d="M1064.49,692.19c0,48.7,0,97.4,0,147.26c-9.37,0-18.24,0-28.6,0c0-33.98-2.55-67.88,1.08-101.11
		c1.81-16.54,14.96-31.85,22.98-47.72C1061.46,691.15,1062.97,691.67,1064.49,692.19z"/>
	<g>
		<path class="st0" d="M495.04,936.31v96.75h-9.69V987.8H432.9v45.26h-9.7v-96.75h9.7v43.46h52.46v-43.46H495.04z"/>
		<path class="st0" d="M531.1,1029.39c-5.68-3.18-10.15-7.71-13.43-13.57c-3.27-5.86-4.91-12.71-4.91-20.55
			c0-7.85,1.66-14.69,4.99-20.55c3.32-5.86,7.84-10.39,13.56-13.57c5.72-3.19,12.14-4.77,19.24-4.77c7.1,0,13.55,1.58,19.31,4.77
			c5.76,3.18,10.29,7.71,13.57,13.57c3.27,5.86,4.91,12.71,4.91,20.55c0,7.75-1.66,14.58-4.99,20.49
			c-3.32,5.9-7.89,10.45-13.7,13.63c-5.81,3.18-12.27,4.77-19.37,4.77C543.15,1034.17,536.77,1032.57,531.1,1029.39z
			 M564.11,1022.33c4.24-2.26,7.68-5.68,10.31-10.24c2.63-4.57,3.94-10.18,3.94-16.82c0-6.65-1.3-12.25-3.88-16.82
			c-2.58-4.56-6-7.97-10.24-10.24c-4.25-2.26-8.86-3.39-13.84-3.39s-9.6,1.13-13.84,3.39c-4.24,2.26-7.63,5.68-10.18,10.24
			c-2.54,4.57-3.81,10.18-3.81,16.82c0,6.65,1.27,12.25,3.81,16.82c2.54,4.56,5.91,7.97,10.11,10.24c4.19,2.26,8.78,3.39,13.77,3.39
			C555.25,1025.72,559.86,1024.6,564.11,1022.33z"/>
		<path class="st0" d="M618.64,965.65v46.92c0,4.61,0.88,7.8,2.64,9.56c1.74,1.75,4.84,2.63,9.27,2.63h8.86v8.3h-10.38
			c-6.84,0-11.91-1.59-15.23-4.77c-3.33-3.19-4.99-8.42-4.99-15.71v-46.92h-10.53v-8.17h10.53v-18.97h9.82v18.97h20.76v8.17H618.64z
			"/>
		<path class="st0" d="M723.43,999.01h-62.71c0.28,5.73,1.66,10.62,4.16,14.67c2.49,4.06,5.76,7.13,9.82,9.21s8.48,3.12,13.29,3.12
			c6.27,0,11.56-1.52,15.84-4.57c4.3-3.04,7.13-7.14,8.52-12.31h10.24c-1.84,7.38-5.78,13.41-11.83,18.06
			c-6.04,4.66-13.63,6.99-22.76,6.99c-7.11,0-13.47-1.59-19.11-4.77c-5.62-3.18-10.04-7.71-13.22-13.57
			c-3.18-5.86-4.77-12.71-4.77-20.55c0-7.85,1.56-14.72,4.71-20.63c3.13-5.9,7.52-10.42,13.14-13.57c5.64-3.14,12.05-4.7,19.24-4.7
			c7.2,0,13.49,1.56,18.89,4.7c5.4,3.15,9.55,7.37,12.46,12.67c2.9,5.31,4.36,11.19,4.36,17.64
			C723.71,994.72,723.61,997.26,723.43,999.01z M710.48,976.72c-2.35-3.97-5.56-6.96-9.61-8.99c-4.06-2.03-8.5-3.04-13.29-3.04
			c-7.2,0-13.33,2.31-18.42,6.92c-5.07,4.61-7.89,11.12-8.44,19.51h53.15C713.97,985.49,712.84,980.7,710.48,976.72z"/>
		<path class="st0" d="M751.11,930.63v102.43h-9.7V930.63H751.11z"/>
		<path class="st0" d="M777.89,1028.15c-5.5-4.02-8.56-9.48-9.21-16.41h9.96c0.47,4.24,2.47,7.69,6.03,10.31
			c3.55,2.63,8.33,3.94,14.32,3.94c5.26,0,9.39-1.24,12.39-3.73c3-2.5,4.5-5.58,4.5-9.28c0-2.58-0.83-4.7-2.49-6.37
			c-1.66-1.66-3.76-2.97-6.29-3.94c-2.54-0.97-5.99-2-10.31-3.1c-5.64-1.48-10.2-2.96-13.7-4.43c-3.51-1.48-6.49-3.67-8.93-6.57
			c-2.45-2.91-3.67-6.8-3.67-11.71c0-3.69,1.11-7.1,3.33-10.24c2.21-3.14,5.35-5.62,9.41-7.47c4.06-1.84,8.68-2.76,13.84-2.76
			c8.11,0,14.67,2.05,19.65,6.16c4.99,4.1,7.67,9.76,8.03,16.96h-9.69c-0.28-4.43-2.01-8.01-5.19-10.73
			c-3.19-2.72-7.55-4.08-13.08-4.08c-4.89,0-8.87,1.15-11.91,3.46c-3.04,2.31-4.57,5.17-4.57,8.58c0,2.96,0.9,5.38,2.7,7.27
			c1.81,1.89,4.04,3.37,6.72,4.43c2.67,1.05,6.27,2.23,10.79,3.53c5.44,1.47,9.78,2.9,13.01,4.28s6,3.41,8.3,6.09
			s3.51,6.23,3.59,10.65c0,4.06-1.11,7.69-3.32,10.87c-2.21,3.19-5.31,5.7-9.27,7.55c-3.97,1.84-8.54,2.76-13.7,2.76
			C790.46,1034.17,783.38,1032.16,777.89,1028.15z"/>
		<path class="st0" d="M955.26,1033.06l-13.14-13.43c-4.71,5.17-9.74,8.97-15.09,11.42c-5.36,2.45-11.4,3.67-18.14,3.67
			c-6.45,0-12.18-1.22-17.16-3.67c-4.99-2.45-8.86-5.88-11.63-10.31c-2.76-4.42-4.15-9.55-4.15-15.36c0-6.83,1.94-12.78,5.81-17.85
			c3.88-5.07,9.56-9.05,17.03-11.91c-3.23-3.59-5.58-6.94-7.06-10.04c-1.48-3.08-2.21-6.43-2.21-10.03c0-6.19,2.21-11.2,6.63-15.02
			c4.43-3.83,10.33-5.74,17.72-5.74c6.92,0,12.55,1.99,16.88,5.95s6.37,9.13,6.09,15.5h-9.69c0.09-4.16-1.18-7.43-3.81-9.83
			c-2.64-2.39-5.93-3.59-9.9-3.59c-4.25,0-7.69,1.18-10.31,3.53c-2.63,2.35-3.94,5.38-3.94,9.07c0,2.95,0.81,5.81,2.42,8.58
			c1.61,2.76,4.17,6.04,7.68,9.82l31.83,32.25c1.3-1.74,3.05-4.52,5.26-8.3l8.86-14.81h10.39l-10.53,18.14
			c-2.49,4.34-4.98,8.21-7.47,11.62l20.21,20.35H955.26z M923.5,1023.1c4.28-2.13,8.37-5.44,12.25-9.97l-30.87-31.28
			c-12.83,4.71-19.24,12.46-19.24,23.25c0,4.06,0.99,7.69,2.98,10.87c1.98,3.19,4.73,5.7,8.24,7.55c3.5,1.84,7.52,2.76,12.04,2.76
			C914.34,1026.28,919.21,1025.21,923.5,1023.1z"/>
		<path class="st0" d="M1070.56,1033.06l-23.94-40.41h-17.85v40.41h-9.7v-96.75h29.07c10.8,0,18.99,2.58,24.57,7.75
			c5.58,5.17,8.38,11.95,8.38,20.35c0,7.01-2.01,12.99-6.03,17.93c-4.01,4.93-9.94,8.14-17.78,9.62l24.91,41.1H1070.56z
			 M1028.76,984.76h19.51c7.57,0,13.27-1.85,17.1-5.54c3.83-3.69,5.74-8.63,5.74-14.81c0-6.37-1.84-11.28-5.53-14.75
			c-3.7-3.46-9.51-5.19-17.45-5.19h-19.37V984.76z"/>
		<path class="st0" d="M1168.43,999.01h-62.71c0.28,5.73,1.66,10.62,4.16,14.67c2.49,4.06,5.76,7.13,9.82,9.21s8.48,3.12,13.29,3.12
			c6.27,0,11.56-1.52,15.84-4.57c4.3-3.04,7.13-7.14,8.52-12.31h10.24c-1.84,7.38-5.78,13.41-11.83,18.06
			c-6.04,4.66-13.63,6.99-22.76,6.99c-7.11,0-13.47-1.59-19.11-4.77c-5.62-3.18-10.04-7.71-13.22-13.57
			c-3.18-5.86-4.77-12.71-4.77-20.55c0-7.85,1.56-14.72,4.71-20.63c3.13-5.9,7.52-10.42,13.14-13.57c5.64-3.14,12.05-4.7,19.24-4.7
			c7.2,0,13.49,1.56,18.89,4.7c5.4,3.15,9.55,7.37,12.46,12.67c2.9,5.31,4.36,11.19,4.36,17.64
			C1168.7,994.72,1168.61,997.26,1168.43,999.01z M1155.48,976.72c-2.35-3.97-5.56-6.96-9.61-8.99c-4.06-2.03-8.5-3.04-13.29-3.04
			c-7.2,0-13.33,2.31-18.42,6.92c-5.07,4.61-7.89,11.12-8.44,19.51h53.15C1158.96,985.49,1157.84,980.7,1155.48,976.72z"/>
		<path class="st0" d="M1191.19,1028.15c-5.5-4.02-8.56-9.48-9.21-16.41h9.96c0.47,4.24,2.47,7.69,6.03,10.31
			c3.55,2.63,8.33,3.94,14.32,3.94c5.26,0,9.39-1.24,12.39-3.73c3-2.5,4.5-5.58,4.5-9.28c0-2.58-0.83-4.7-2.49-6.37
			c-1.66-1.66-3.76-2.97-6.29-3.94c-2.54-0.97-5.99-2-10.31-3.1c-5.64-1.48-10.2-2.96-13.7-4.43s-6.49-3.67-8.93-6.57
			c-2.45-2.91-3.67-6.8-3.67-11.71c0-3.69,1.11-7.1,3.33-10.24c2.21-3.14,5.35-5.62,9.41-7.47c4.06-1.84,8.68-2.76,13.84-2.76
			c8.11,0,14.67,2.05,19.65,6.16c4.99,4.1,7.67,9.76,8.03,16.96h-9.69c-0.28-4.43-2.01-8.01-5.19-10.73
			c-3.19-2.72-7.55-4.08-13.08-4.08c-4.89,0-8.87,1.15-11.91,3.46c-3.04,2.31-4.57,5.17-4.57,8.58c0,2.96,0.9,5.38,2.7,7.27
			c1.81,1.89,4.04,3.37,6.72,4.43c2.67,1.05,6.27,2.23,10.79,3.53c5.44,1.47,9.78,2.9,13.01,4.28s6,3.41,8.3,6.09
			c2.31,2.68,3.51,6.23,3.59,10.65c0,4.06-1.11,7.69-3.32,10.87c-2.21,3.19-5.31,5.7-9.27,7.55c-3.97,1.84-8.54,2.76-13.7,2.76
			C1203.76,1034.17,1196.68,1032.16,1191.19,1028.15z"/>
		<path class="st0" d="M1270.92,1029.39c-5.68-3.18-10.15-7.71-13.43-13.57c-3.27-5.86-4.91-12.71-4.91-20.55
			c0-7.85,1.66-14.69,4.99-20.55c3.32-5.86,7.84-10.39,13.56-13.57c5.72-3.19,12.14-4.77,19.24-4.77c7.1,0,13.55,1.58,19.31,4.77
			c5.76,3.18,10.29,7.71,13.57,13.57c3.27,5.86,4.91,12.71,4.91,20.55c0,7.75-1.66,14.58-4.99,20.49
			c-3.32,5.9-7.89,10.45-13.7,13.63c-5.81,3.18-12.27,4.77-19.37,4.77C1282.98,1034.17,1276.6,1032.57,1270.92,1029.39z
			 M1303.93,1022.33c4.24-2.26,7.68-5.68,10.31-10.24c2.63-4.57,3.94-10.18,3.94-16.82c0-6.65-1.3-12.25-3.88-16.82
			c-2.58-4.56-6-7.97-10.24-10.24c-4.25-2.26-8.86-3.39-13.84-3.39c-4.99,0-9.6,1.13-13.84,3.39s-7.63,5.68-10.18,10.24
			c-2.54,4.57-3.81,10.18-3.81,16.82c0,6.65,1.27,12.25,3.81,16.82c2.54,4.56,5.91,7.97,10.11,10.24c4.19,2.26,8.78,3.39,13.77,3.39
			S1299.68,1024.6,1303.93,1022.33z"/>
		<path class="st0" d="M1365.32,959.97c4.38-2.58,9.75-3.87,16.12-3.87v10.1h-2.63c-7.02,0-12.64,1.89-16.88,5.68
			c-4.25,3.79-6.37,10.1-6.37,18.96v42.22h-9.7v-75.57h9.7v13.43C1357.68,966.21,1360.93,962.56,1365.32,959.97z"/>
		<path class="st0" d="M1408.57,965.65v46.92c0,4.61,0.88,7.8,2.64,9.56c1.74,1.75,4.84,2.63,9.27,2.63h8.86v8.3h-10.38
			c-6.84,0-11.91-1.59-15.23-4.77c-3.33-3.19-4.99-8.42-4.99-15.71v-46.92h-10.53v-8.17h10.53v-18.97h9.82v18.97h20.76v8.17H1408.57
			z"/>
		<path class="st0" d="M1450.03,1028.15c-5.5-4.02-8.56-9.48-9.21-16.41h9.96c0.47,4.24,2.47,7.69,6.03,10.31
			c3.55,2.63,8.32,3.94,14.32,3.94c5.26,0,9.39-1.24,12.39-3.73c3-2.5,4.5-5.58,4.5-9.28c0-2.58-0.83-4.7-2.49-6.37
			c-1.66-1.66-3.76-2.97-6.29-3.94c-2.54-0.97-5.99-2-10.31-3.1c-5.64-1.48-10.2-2.96-13.7-4.43c-3.51-1.48-6.49-3.67-8.93-6.57
			c-2.45-2.91-3.67-6.8-3.67-11.71c0-3.69,1.11-7.1,3.33-10.24c2.21-3.14,5.35-5.62,9.41-7.47c4.06-1.84,8.68-2.76,13.84-2.76
			c8.11,0,14.67,2.05,19.65,6.16c4.99,4.1,7.67,9.76,8.03,16.96h-9.69c-0.28-4.43-2.01-8.01-5.19-10.73
			c-3.19-2.72-7.55-4.08-13.08-4.08c-4.89,0-8.87,1.15-11.91,3.46c-3.04,2.31-4.57,5.17-4.57,8.58c0,2.96,0.9,5.38,2.7,7.27
			c1.81,1.89,4.04,3.37,6.72,4.43c2.67,1.05,6.27,2.23,10.79,3.53c5.44,1.47,9.78,2.9,13.01,4.28s6,3.41,8.3,6.09
			c2.31,2.68,3.51,6.23,3.59,10.65c0,4.06-1.11,7.69-3.32,10.87c-2.21,3.19-5.31,5.7-9.27,7.55c-3.97,1.84-8.54,2.76-13.7,2.76
			C1462.6,1034.17,1455.52,1032.16,1450.03,1028.15z"/>
	</g>
</g>
<path class="st0" d="M1209.68,283.62c-5.77-6.52-58.06-63.2-124.75-51.82c-35.58,6.07-58.66,28.53-67.61,37.79
	c-8.28-9.26-14.96-18.37-20.19-27.78c4.56-1.29,8.89-2.81,12.9-4.48c39.01-15.94,60.03-45.45,69.13-61.69
	c16.01-28.69,17.53-55.01,18.13-66.25c0.99-18.43-1.05-36.87-6.21-54.86l-1.52-5.23l-5.32,1.29c-23.3,5.62-44.77,16.54-62.15,31.65
	c-2.43,2.12-59.71,52.81-49.7,122.39c1.45,10.01,4.17,19.8,8.19,29.36c-1.91,0.41-3.68,0.69-5.46,0.96
	c-5.3,0.8-11.45,1.31-18.33,1.11c-3-0.1-5.79-0.36-8.46-0.66c-0.35-0.03-0.72-0.07-1.06-0.1c-2.84-0.35-5.48-0.8-7.88-1.3
	c4.02-9.56,6.76-19.35,8.19-29.36c10.01-69.59-47.28-120.28-49.7-122.39c-17.39-15.11-38.86-26.03-62.16-31.65l-5.3-1.29l-1.53,5.23
	c-5.15,17.99-7.21,36.42-6.22,54.86c0.62,11.24,2.13,37.56,18.14,66.25c9.11,16.25,30.12,45.75,69.12,61.69
	c4.03,1.66,8.36,3.19,12.91,4.48c-5.24,9.41-11.92,18.51-20.19,27.78c-8.96-9.26-32.03-31.72-67.61-37.79
	c-66.71-11.38-118.98,45.3-124.75,51.82l-3.41,3.95l3.55,3.71c11.46,12.08,30.97,28.08,59.12,35.82
	c44.39,12.21,81.8-4.02,95.84-11.53c16.31-8.8,26.64-18.97,33.46-25.73c1.14-1.14,2.36-2.28,3.65-3.57
	c33.61,39.47,40.59,90.07,44.84,120.42c2.8,20.4,4.1,29.75,12.75,29.75c8.57,0,9.87-9.34,12.75-29.75
	c2.88-20.35,7.22-49.73,19.81-78.79c7.77-17.24,16.77-31.08,24.8-41.63c1.29,1.29,2.51,2.43,3.65,3.57
	c6.84,6.76,17.15,16.93,33.45,25.73c14.05,7.51,51.45,23.74,95.85,11.53c28.15-7.74,47.65-23.74,59.11-35.82l3.58-3.71
	L1209.68,283.62z M892.19,283.11l-1.37-1.3c-6.75,6.68-15.94,15.78-30.81,23.74c-12.83,6.92-46.97,21.72-87.42,10.56
	c-23.14-6.31-39.84-18.9-50.15-28.84c14.04-14.34,57.59-53.19,110.63-44.24c32.25,5.54,53.5,26.25,61.69,34.83
	c-1.36,1.37-2.64,2.73-3.87,3.86L892.19,283.11z M1029.54,90.82c14.64-12.68,32.63-22.31,51.99-27.78
	c3.79,15.03,5.23,30.35,4.39,45.77c-0.59,10.47-1.96,34.9-16.68,61.31c-8.36,14.87-27.71,42.04-63.45,56.68
	c-3.03,1.29-7.8,3.04-13.88,4.71c-4.1-9.33-6.84-18.89-8.27-28.46C974.44,139.45,1027.34,92.79,1029.54,90.82 M914.19,226.79
	c-35.74-14.64-55.08-41.81-63.42-56.68c-14.73-26.41-16.09-50.84-16.7-61.31c-0.83-15.41,0.61-30.74,4.41-45.77
	c19.35,5.47,37.32,15.1,51.96,27.78c2.21,1.97,55.1,48.64,45.92,112.22c-1.45,9.57-4.18,19.13-8.28,28.46
	C922.02,229.84,917.24,228.08,914.19,226.79 M989.49,308.32c-19.17,35.66-24.62,73.77-27.87,96.79l1.89,0.23l-1.97,0.16
	c-0.46,3.26-0.91,6.74-1.44,9.85c-0.52-3.26-1.06-6.84-1.52-10.24c-4.1-29.75-11.77-84.83-48.19-127.1
	c10.03-11.07,17.91-22,23.91-33.38c1.7,0.4,3.54,0.79,5.5,1.15c1.18,0.22,2.46,0.39,3.71,0.59c0.84,0.13,1.65,0.25,2.52,0.36
	c1.49,0.19,3.04,0.33,4.63,0.47c0.76,0.07,1.5,0.13,2.29,0.18c1.69,0.1,3.39,0.16,5.18,0.19c0.33,0.01,0.64,0.03,0.98,0.05
	c0.51,0,0.98-0.05,1.5-0.05c1.25-0.01,2.43,0.06,3.73,0c0.63-0.02,1.18-0.1,1.81-0.14c1.22-0.07,2.37-0.19,3.53-0.3
	c1.42-0.13,2.88-0.22,4.22-0.4c2.43-0.3,4.67-0.67,6.79-1.08c0.11-0.02,0.24-0.03,0.34-0.05c0,0,0-0.01-0.01-0.01
	c1.63-0.33,3.21-0.65,4.65-0.98c5.99,11.38,13.88,22.31,23.89,33.38C1003.41,285.2,995.98,295.26,989.49,308.32 M1147.38,316.11
	c-40.45,11.15-74.59-3.65-87.41-10.56c-14.88-7.96-24.05-17.07-30.81-23.74l-1.37,1.3l1.29-1.38c-1.21-1.13-2.51-2.5-3.87-3.86
	c8.2-8.58,29.44-29.29,61.69-34.83c53.05-8.95,96.6,29.9,110.64,44.24C1187.22,297.21,1170.53,309.8,1147.38,316.11"/>
</svg>
