<?xml version="1.0" encoding="utf-8"?>
<!-- Generator: Adobe Illustrator 25.4.1, SVG Export Plug-In . SVG Version: 6.00 Build 0)  -->
<svg version="1.1" id="Camada_1" xmlns="http://www.w3.org/2000/svg" xmlns:xlink="http://www.w3.org/1999/xlink" x="0px" y="0px"
	 viewBox="0 0 414.11 80" style="enable-background:new 0 0 414.11 80;" xml:space="preserve">
	<g>
		<g>
			<path style="fill: #224255;" d="M7.1,62.54c0-1.18,0.88-2.62,2.69-4.31c2.25-2.29,6.49-5.23,12.75-8.88c1.33-0.81,2.21-1.22,2.62-1.22
				c0.33,0,0.48,0.18,0.48,0.52L25.6,48.9c-3.69,1.88-7.3,4.09-10.84,6.63c-4.31,3.17-6.45,5.53-6.45,7.08c0,0.29,0.18,0.52,0.59,0.7
				c0.41,0.18,1.03,0.29,1.88,0.29c0.66,0,1.33-0.04,2.03-0.11c6.16-0.85,13.78-3.39,22.89-7.63c8.07-3.72,12.09-6.49,12.09-8.29
				c0-0.41-0.11-0.74-0.33-0.92c-0.77-0.77-2.95-1.58-6.52-2.43c-2.99-0.41-5.31-0.63-6.97-0.66c-1.66-0.04-3.02-0.11-4.13-0.15
				l-2.21-0.04c-1.07,0-3.1,0.04-6.12,0.18c-4.72,0.22-7.89,0.33-9.44,0.33c-2.1,0-3.65-0.15-4.64-0.48
				c-1.47-0.44-2.21-1.33-2.21-2.62c0-3.17,5.05-8.85,15.11-16.95c7.92-6.3,15.92-11.5,23.96-15.55c6.74-3.35,12.02-5.05,15.74-5.05
				c0.77,0,1.36,0.07,1.84,0.18c1.77,0.48,2.76,1.47,2.95,2.99l0.04,0.59c0,2.32-1.7,5.38-5.09,9.1c-1.25,1.36-2.51,2.47-3.8,3.39
				c-1.29,0.92-2.32,1.44-3.02,1.55c-0.33,0-0.59-0.04-0.7-0.07c-0.41-0.18-0.63-0.52-0.63-1.07c0-0.81,0.66-2.1,2.03-3.91
				c0.85-1.07,1.66-2.03,2.47-2.87c1.07-1.14,1.88-1.73,2.32-1.73c0.48,0,0.74,0.26,0.74,0.74c0,0.59-0.26,0.88-0.74,0.88
				c-0.18,0-0.44,0.18-0.77,0.52c-1.47,1.51-2.73,3.06-3.8,4.64c-0.48,0.81-0.74,1.25-0.74,1.4c0,0.04,0,0.04,0.04,0.04
				c0.22,0,0.77-0.29,1.62-0.88c2.36-1.66,4.42-3.69,6.19-6.08c1.33-1.84,2.06-3.35,2.32-4.57c0.04-0.18,0.04-0.55,0.04-1.11
				c0-0.92-0.37-1.51-1.07-1.77c-0.44-0.26-1.22-0.37-2.32-0.37c-1.81,0.04-3.8,0.44-5.93,1.14c-4.79,1.55-10.32,4.2-16.55,8
				c-6.27,3.8-12.38,8.18-18.39,13.16c-5.75,4.75-9.47,8.62-11.13,11.65c-0.41,0.7-0.59,1.33-0.59,1.95c0,0.88,0.88,1.36,2.62,1.51
				c0.48,0.04,1.22,0.07,2.21,0.11c1.81,0,4.28-0.07,7.37-0.18c4.83-0.22,8.51-0.33,11.06-0.33c2.87,0.07,5.01,0.15,6.41,0.26
				c7.59,0.96,11.87,2.43,12.86,4.39c0.15,0.26,0.22,0.59,0.22,1c0,0.85-0.37,1.66-1.11,2.51c-1.58,1.73-4.75,3.76-9.51,6.01
				c-4.75,2.29-10.1,4.39-16.07,6.27c-5.49,1.73-9.77,2.58-12.79,2.58C8.28,64.71,7.1,63.94,7.1,62.54z"/>
			<path style="fill: #224255;" d="M53.06,56.24c-0.37-0.11-0.77-0.59-0.88-0.96c-0.04-0.18-0.07-0.37-0.07-0.59c0-1.25,0.92-2.91,2.21-3.83
				c0.11-0.11,0.18-0.15,0.18-0.18c0-0.07-0.11-0.11-0.41-0.22c-0.81-0.26-1.25-0.59-1.25-1c0-0.22,0.18-0.52,0.44-0.66
				c0.18-0.11,0.48-0.15,0.85-0.15c0.29,0,0.66,0.04,1,0.11c0.66,0.18,1.07,0.41,1.58,0.88c0.37,0.37,0.41,0.37,0.92,0.44
				c1.11,0.15,3.98,0.26,5.53,0.26c0.52,0,0.85,0,1-0.04l0.22-0.04c0.37,0,0.59,0.18,0.59,0.44l-0.07,0.26
				c-0.18,0.33-0.44,0.37-1.47,0.41h-0.48c-1.25,0-3.76-0.07-4.75-0.15l-0.52-0.04c0.04,0.26,0.07,0.33,0.07,1.07
				c0,0.48-0.04,0.7-0.18,1.07c-0.52,1.25-1.51,2.29-2.73,2.8c-0.33,0.15-0.74,0.18-1.11,0.18C53.47,56.31,53.25,56.31,53.06,56.24z
				M54.83,54.84c0.29-0.15,0.59-0.37,0.92-0.66c0.63-0.63,0.96-1.33,0.96-1.95l-0.04-0.29c-0.04-0.18-0.07-0.29-0.15-0.29
				c-0.07,0-0.18,0.11-0.41,0.26c-1.07,0.7-2.36,2.47-2.36,3.02c0,0.07,0,0.11,0.07,0.15l0.15,0.04
				C54.2,55.09,54.5,54.98,54.83,54.84z"/>
			<path style="fill: #224255;" d="M62.06,56.09c-0.26-0.26-0.37-0.55-0.37-0.96c0-0.37,0.11-0.81,0.33-1.36c0.59-1.58,2.47-4.16,3.54-4.94
				c0.18-0.15,0.41-0.22,0.63-0.22c0.37,0,0.77,0.22,0.92,0.59c0.07,0.15,0.11,0.29,0.11,0.44c0,0.33-0.26,0.7-0.92,1.55
				c-0.81,0.96-1.92,2.43-1.92,2.51c0.07,0,0.48-0.37,0.96-0.77c1.99-1.73,3.21-2.69,4.53-3.54c0.88-0.59,1.22-0.74,1.77-0.88
				l0.44-0.04c0.88,0,1.4,0.52,1.4,1.44c0,0.29-0.15,1.03-0.29,1.36l0.04,0.04c1.29-0.63,1.99-0.96,2.84-0.96
				c0.26,0,0.52,0.04,0.74,0.11c0.59,0.18,1.55,0.7,2.95,1.66c2.06,1.36,2.84,1.66,4.39,1.73c0.7,0,0.88,0,1.47-0.07
				c1.18-0.26,3.1-1.77,3.8-2.43c0.26-0.26,0.44-0.41,0.59-0.41c0.07,0,0.18,0.04,0.26,0.11c0.15,0.07,0.18,0.22,0.18,0.37
				c0,0.37-2.54,3.94-6.52,3.94H83.8c-1.36,0-2.73-0.18-3.91-0.85c-0.74-0.37-1.77-1.03-2.73-1.73c-1-0.74-1.29-0.92-1.73-0.92
				c-1.25,0-2.65,0.96-4.2,2.8c-0.29,0.41-0.63,0.74-0.7,0.77c-0.07,0.04-0.15,0.07-0.26,0.07c-0.11,0-0.29-0.04-0.48-0.18
				c-0.29-0.18-0.44-0.37-0.44-0.7c0-0.55,0.41-1.44,1.4-3.17c0.44-0.81,0.81-1.51,0.81-1.58c0-0.04-0.04-0.04-0.07-0.04
				c-0.41,0-2.65,1.51-4.24,2.91c-0.29,0.26-1.11,0.96-1.77,1.58c-2.1,1.92-2.25,2.03-2.84,2.03C62.39,56.35,62.31,56.31,62.06,56.09
				z"/>
			<path style="fill: #224255;" d="M91.03,56.46c-1.84-0.18-2.84-1.07-2.99-2.58v-0.18c0-1.66,1.47-3.76,3.58-5.01c0.77-0.48,1.51-0.7,2.29-0.7
				h0.22c0.52,0,0.81,0.11,1.14,0.37c0.29,0.26,0.44,0.59,0.44,0.96c0,0.74-0.63,1.66-1.77,2.54c-1.03,0.77-2.25,1.22-3.28,1.22H90.1
				c-0.15,0.41-0.22,0.55-0.22,0.88c0,0.77,0.81,1.14,2.58,1.14h0.22c1.47,0,2.58-0.22,4.42-0.85c2.21-0.77,5.2-2.43,6.23-3.46
				c0.26-0.26,0.44-0.41,0.63-0.41c0.15,0,0.22,0.04,0.33,0.15c0.07,0.07,0.15,0.18,0.15,0.29c0,0.63-1.25,1.66-3.69,2.99
				c-2.76,1.55-5.49,2.47-7.85,2.65c-0.48,0.04-0.77,0.04-1.03,0.04C91.62,56.49,91.39,56.49,91.03,56.46z M91.73,51.85
				c1.07-0.33,2.25-1.22,2.65-1.99l0.11-0.29c0-0.07-0.07-0.11-0.15-0.11l-0.29,0.04c-0.41,0.11-0.88,0.37-1.44,0.7
				c-0.41,0.29-1.4,1.25-1.7,1.66l-0.15,0.22C91.14,52.03,91.36,52,91.73,51.85z"/>
			<path style="fill: #224255;" d="M94.23,64.9c-0.11-0.11-0.15-0.22-0.15-0.33c0-0.18,0.15-0.48,0.52-0.96c0.74-0.92,3.21-4.42,4.98-6.93
				c1.47-2.14,2.95-4.31,7.74-11.57c1.99-3.02,3.24-4.83,4.72-6.97c-3.35-0.04-6.45-0.11-7.85-0.15l-2.76-0.04
				c0.66,0.26,1.07,0.41,1.07,0.85c0,0.29-0.11,0.48-0.44,0.63c-0.18,0.07-0.26,0.11-0.33,0.11l-0.18-0.04
				c-0.07,0-0.18-0.11-0.29-0.22c-0.15-0.11-0.33-0.18-0.81-0.26c-1.25-0.18-2.65-0.29-4.5-0.37c-3.35-0.11-4.16-0.18-4.39-0.29
				c-0.26-0.11-0.37-0.29-0.37-0.52c0-0.22,0.15-0.48,0.48-0.63c0.33-0.18,2.84-0.33,6.63-0.41h1.4c2.62,0,6.34,0.07,11.9,0.22
				c0.41,0.04,0.81,0.04,1.18,0.04l5.82-8.03c4.35-5.97,4.2-5.79,4.42-5.93c0.15-0.11,0.33-0.15,0.55-0.15
				c0.18,0,0.37,0.04,0.52,0.15c0.22,0.15,0.44,0.55,0.44,0.81c0,0.66-1.11,2.25-7.19,10.14l-2.32,3.1
				c6.97,0.18,15.63,0.41,19.83,0.48c6.38,0.11,6.19,0.11,6.38,0.29c0.11,0.07,0.18,0.22,0.18,0.33c0,0.11-0.07,0.26-0.18,0.37
				l-0.15,0.15c-5.79-0.11-8.22-0.11-18.87-0.37c-2.06-0.07-5.01-0.15-8-0.18c-2.95,3.91-5.01,6.78-8.22,11.39
				c-0.77,1.14-2.06,3.02-2.91,4.16l-3.24,4.57c-2.32,3.24-4.24,5.86-4.64,6.34c-0.26,0.26-0.44,0.37-0.63,0.37
				C94.45,65.04,94.34,65.01,94.23,64.9z"/>
			<path style="fill: #224255;" d="M108.9,56.16c-0.11-0.04-0.29-0.15-0.41-0.26c-0.15-0.15-0.22-0.33-0.22-0.55c0-0.52,0.33-1.33,1.03-2.54
				c0.85-1.51,3.24-5.23,5.09-8.03c4.05-6.08,9.03-12.24,13.19-16.29c2.51-2.43,4.13-3.58,5.27-3.61c0.81,0,1.22,0.22,1.29,1
				c0,0.81-0.41,1.92-1.7,3.76c-1.62,2.47-3.8,5.01-7.11,8.29c-3.32,3.32-6.56,6.08-8.33,7.11c-0.48,0.29-0.55,0.37-1.25,1.36
				c-0.81,1.11-2.8,3.98-2.8,4.02c2.29-2.17,3.98-3.61,5.6-4.13c0.52-0.18,0.92-0.26,1.36-0.26c0.48,0,0.96,0.11,1.47,0.37
				c1.07,0.52,1.95,1.55,2.95,3.39c0.92,1.73,1.36,2.29,2.21,2.65c0.37,0.18,0.48,0.18,1.11,0.18c0.88,0,1.51-0.18,2.36-0.66
				c0.96-0.52,2.84-1.99,3.02-1.99h0.07c0.15,0,0.29,0.07,0.29,0.33c0,0.29-0.29,0.81-1.36,1.77c-1.44,1.25-2.29,1.62-3.39,1.92
				c-0.41,0.11-0.88,0.15-1.36,0.15c-0.44,0-0.88-0.04-1.25-0.15c-1-0.29-1.55-0.66-2.32-1.4c-0.63-0.63-0.77-0.85-1.44-1.99
				c-1.36-2.29-1.88-2.84-2.73-2.95c-1.18,0-2.62,0.66-4.72,2.54c-1.33,1.18-2.54,2.58-4.13,4.64c-0.52,0.7-1.03,1.29-1.11,1.33
				c-0.11,0.04-0.22,0.07-0.33,0.07S109.05,56.2,108.9,56.16z M119.19,42.16c4.46-3.76,9.18-8.62,11.54-11.94
				c0.92-1.33,1.99-3.24,1.99-3.54c0-0.04,0-0.04-0.04-0.04c-0.85,0-8.37,8.15-13.49,14.96c-0.48,0.66-0.74,1.03-0.74,1.11
				C118.52,42.71,118.74,42.52,119.19,42.16z"/>
			<path style="fill: #224255;" d="M132.34,56.16c-0.7-0.18-1.36-0.7-1.66-1.33c-0.18-0.37-0.29-0.85-0.29-1.33c0-1.22,0.55-2.62,1.51-3.58
				c0.37-0.37,0.55-0.52,0.77-0.59c0.11-0.04,0.22-0.04,0.33-0.04c0.59,0,1,0.44,1,1.03v0.11c-0.04,0.18-0.22,0.55-0.59,1.11
				c-0.74,1.14-1.07,1.81-1.11,2.4v0.29c0,0.18,0.04,0.22,0.22,0.37c0.22,0.22,0.55,0.29,1,0.29c0.77,0,1.81-0.29,2.91-0.81
				c1.33-0.63,3.72-2.14,4.75-2.95c0.37-0.33,0.59-0.44,0.74-0.44c0.29,0,0.48,0.22,0.48,0.48c0,0.11-0.04,0.26-0.15,0.37
				c-0.44,0.59-3.24,2.47-5.12,3.43c-1.51,0.81-3.02,1.25-4.09,1.25C132.79,56.24,132.57,56.2,132.34,56.16z M134.85,47.91
				c-0.22-0.11-0.37-0.37-0.37-0.59l0.04-0.15c0.04-0.33,0.33-0.63,0.63-0.7h0.15c0.41,0,0.7,0.29,0.7,0.7
				c0,0.11-0.04,0.22-0.07,0.37c-0.11,0.29-0.44,0.48-0.7,0.48C135.07,48.02,134.96,47.98,134.85,47.91z"/>
			<path style="fill: #224255;" d="M152.69,52.29c-0.41-1.99-0.85-2.91-1.36-2.76c-0.37,0-1.84,1.29-4.46,3.91c-1.81,1.84-3.13,2.8-3.91,2.91
				l-0.59,0.04c-1.44,0-2.25-0.7-2.36-2.14c0-0.48,0.15-1,0.41-1.55c0.26-0.52,0.59-1.18,1.07-2.03c0.48-0.81,1-1.22,1.58-1.22
				c0.85,0.07,1.29,0.44,1.29,1.07c0,0.48-0.26,1.07-0.81,1.77c-0.7,0.92-1.03,1.7-1.03,2.36c0,0.11,0.04,0.18,0.15,0.18
				c0.37,0,1.55-0.96,3.54-2.84c1.95-1.88,3.17-3.02,3.65-3.35c0.44-0.33,0.81-0.63,1.07-0.81c0.55-0.41,1.07-0.52,1.51-0.33
				c0.55,0.18,0.96,0.85,1.22,1.92c0.26,1.18,0.7,2.58,1.4,4.24c0.7,1.66,1.84,2.25,3.46,1.81c1.66-0.41,3.02-1,4.13-1.77
				c1.11-0.77,1.92-1.4,2.43-1.88c0.11-0.15,0.22-0.26,0.33-0.37c0.11-0.07,0.22-0.11,0.41-0.11c0.29,0,0.48,0.15,0.52,0.44
				c0,0.63-1,1.55-3.02,2.76c-2.32,1.33-4.16,2.1-5.49,2.29c-1.33,0.18-2.43-0.04-3.28-0.63C153.68,55.61,153.1,54.32,152.69,52.29z"
				/>
			<path style="fill: #224255;" d="M151.51,76.73c-0.37-0.07-0.66-0.22-0.88-0.48c-0.29-0.33-0.37-0.63-0.37-1.18c0-2.03,2.43-5.45,7.11-10.06
				c1.73-1.7,2.47-2.4,4.46-4.09c1.47-1.29,2.87-2.4,4.2-3.43l0.7-0.52c1.55-3.1,2.4-4.61,2.4-4.94L169.09,52
				c-0.11,0-0.52,0.41-1.22,1.11c-1.92,1.84-2.47,2.29-3.17,2.36h-0.15c-0.7,0-1.11-0.44-1.11-1.22c0-0.18,0-0.37,0.07-0.59
				c0.26-1.14,1.03-2.4,2.29-3.61c0.96-0.96,1.44-1.29,2.29-1.55c0.37-0.11,0.7-0.18,1.03-0.18c0.41,0,0.81,0.11,1.07,0.33
				c0.11,0.07,0.15,0.07,0.22,0.07l0.11-0.04c0.07-0.07,0.18-0.07,0.29-0.07c0.15,0,0.33,0.07,0.55,0.22
				c0.41,0.33,0.52,0.55,0.52,1.07c0,0.77-0.41,2.03-1.14,3.72l-0.22,0.63v0.04l0.63-0.37c1.73-1.18,4.87-3.06,6.01-3.65
				c0.52-0.26,0.88-0.41,1.14-0.41c0.18,0,0.33,0.07,0.44,0.15c0.15,0.11,0.18,0.26,0.18,0.41c0,0.26-0.15,0.52-0.44,0.52
				c-0.11,0-0.33,0.07-0.52,0.15c-0.96,0.41-4.13,2.36-6.82,4.16l-1.66,1.11c-2.8,5.31-4.57,8.55-7.7,12.61
				c-2.06,2.65-5.09,5.53-7.08,6.74c-1.14,0.7-2.14,1.07-2.87,1.07L151.51,76.73z M152.69,74.96c1.99-1,4.98-3.83,7.37-6.97
				c1.51-2.03,3.46-5.09,4.98-7.89l0.33-0.59c-1.25,0.88-3.87,3.21-6.01,5.2c-4.13,3.91-7.11,7.59-7.67,9.55
				c-0.07,0.22-0.11,0.52-0.11,0.7c0,0.15,0,0.26,0.04,0.29c0.04,0.04,0.07,0.04,0.15,0.04C151.95,75.29,152.28,75.18,152.69,74.96z
				M167.29,52.03c0.74-0.66,1.47-1.44,1.73-1.66c0.22-0.26,0.33-0.41,0.33-0.44s-0.04-0.04-0.11-0.04c-0.96,0-2.62,1.44-3.72,3.24
				l-0.33,0.59l0.04,0.04C165.37,53.77,166.11,53.14,167.29,52.03z"/>
			<path style="fill: #224255;" d="M203.7,56.16c-0.7-0.18-1.36-0.7-1.66-1.33c-0.18-0.37-0.29-0.85-0.29-1.33c0-1.22,0.55-2.62,1.51-3.58
				c0.37-0.37,0.55-0.52,0.77-0.59c0.11-0.04,0.22-0.04,0.33-0.04c0.59,0,1,0.44,1,1.03v0.11c-0.04,0.18-0.22,0.55-0.59,1.11
				c-0.74,1.14-1.07,1.81-1.11,2.4v0.29c0,0.18,0.04,0.22,0.22,0.37c0.22,0.22,0.55,0.29,1,0.29c0.77,0,1.81-0.29,2.91-0.81
				c1.33-0.63,3.72-2.14,4.75-2.95c0.37-0.33,0.59-0.44,0.74-0.44c0.29,0,0.48,0.22,0.48,0.48c0,0.11-0.04,0.26-0.15,0.37
				c-0.44,0.59-3.24,2.47-5.12,3.43c-1.51,0.81-3.02,1.25-4.09,1.25C204.14,56.24,203.92,56.2,203.7,56.16z M206.21,47.91
				c-0.22-0.11-0.37-0.37-0.37-0.59l0.04-0.15c0.04-0.33,0.33-0.63,0.63-0.7h0.15c0.41,0,0.7,0.29,0.7,0.7
				c0,0.11-0.04,0.22-0.07,0.37c-0.11,0.29-0.44,0.48-0.7,0.48C206.43,48.02,206.32,47.98,206.21,47.91z"/>
			<path style="fill: #224255;" d="M208.2,61.69c-1.22-0.22-1.92-1.07-1.92-2.14c0-0.41,0.07-0.81,0.29-1.25c0.7-1.47,2.69-3.13,5.57-4.61
				l1.07-0.55v-1.51c0-1.7,0.04-2.1,0.37-2.69c0.55-0.88,1.58-1.55,2.36-1.55c0.18,0,0.33,0.04,0.48,0.11
				c0.37,0.18,0.52,0.44,0.52,0.81c0,0.41-0.15,0.59-0.66,0.88c-0.18,0.11-0.44,0.26-0.55,0.37c-0.37,0.33-0.41,0.48-0.41,1.58
				c0,0.81,0.04,1.03,0.11,1.03l0.04-0.04c0.07,0,0.7-0.22,1.4-0.48c2.36-0.77,4.39-1.22,5.82-1.22c0.92,0,1.25,0.07,1.4,0.29
				l0.07,0.26c0,0.11-0.07,0.26-0.15,0.33c-0.11,0.11-0.29,0.11-1.14,0.15c-0.85,0-1.22,0.04-2.1,0.22c-1.29,0.26-2.47,0.59-3.69,1
				c-1.73,0.59-1.81,0.63-1.81,1.03c0,0.44-0.26,1.55-0.52,2.36c-0.77,2.36-2.47,4.42-4.28,5.23c-0.59,0.26-1.29,0.41-1.84,0.41
				L208.2,61.69z M209.19,60.07c1.36-0.44,2.65-1.88,3.32-3.61c0.18-0.55,0.52-1.7,0.52-1.92V54.5h-0.04c-0.11,0-0.77,0.33-1.58,0.81
				c-2.32,1.4-3.87,3.02-3.87,4.05c0,0.55,0.33,0.85,0.85,0.85C208.64,60.22,208.9,60.18,209.19,60.07z"/>
			<path style="fill: #224255;" d="M236.14,63.2l-0.74-0.07c-2.73-0.44-4.39-2.1-4.39-4.35l0.04-0.63c0.63-4.98,7.52-10.73,16.73-13.97l1.4-0.48
				c0.15-1.44,1.03-3.61,2.8-6.74c0.37-0.55,0.63-1.11,0.63-1.22c-0.11-0.29-1.07-1.62-2.17-2.95c-1.47-1.73-1.99-2.47-2.54-3.39
				c-0.81-1.44-1.22-2.91-1.22-4.42c0-2.4,1.03-4.87,3.1-7.33c2.8-3.35,6.89-6.41,11.87-8.85c4.68-2.25,8.85-3.61,12.97-4.24
				c0.7-0.07,1.36-0.11,2.95-0.11c1.77,0,2.06,0.04,2.8,0.15c1.33,0.29,2.25,0.77,2.99,1.44c0.74,0.77,1.11,1.77,1.11,2.95
				c0,1.29-0.41,2.76-1.25,4.31c-1.7,3.21-5.49,7.15-10.14,10.61c-0.33,0.22-0.55,0.44-0.55,0.44h0.04c0.11,0,0.52-0.07,0.96-0.18
				c1.92-0.37,3.39-0.55,5.09-0.55l1.03,0.04c2.25,0.04,3.28,0.22,4.57,0.85c1.29,0.63,2.14,1.66,2.36,2.95l0.04,0.59
				c0,5.01-8.62,14.52-21.23,23.26c-9.66,6.74-19.13,11.02-26.1,11.87c-0.55,0.04-1.44,0.07-2.14,0.07
				C236.73,63.24,236.32,63.24,236.14,63.2z M239.86,61.1c5.53-1,12.46-3.94,19.87-8.51c5.46-3.39,11.5-7.96,16.22-12.27
				c0.59-0.52,1.07-1,1.07-1.03h-0.11c-0.33,0-1.44,0.07-2.76,0.22c-5.05,0.55-13.56,2.32-20.6,4.24c-0.85,0.26-0.92,0.29-1.36,0.66
				c-0.59,0.55-1.18,0.88-1.58,0.92h-0.22c-0.15,0-0.29-0.04-0.52-0.15l-0.41-0.18c-5.64,1.81-10.32,4.5-13.42,7.59
				c-2.17,2.14-3.35,4.24-3.35,5.93v0.22c0,0.59,0.15,1.03,0.48,1.4c0.55,0.59,1.07,0.85,2.21,1.07c0.29,0.07,0.81,0.07,1.4,0.07
				C237.8,61.29,239.05,61.21,239.86,61.1z M256.19,41.75c1.22-0.26,3.17-0.77,4.28-1.03c7.22-1.62,13.53-2.62,16.66-2.62h1.11
				c2.84-2.87,4.9-5.31,6.19-7.81c0.48-0.96,0.7-1.77,0.7-2.47c0-0.66-0.22-1.18-0.63-1.62c-0.92-0.92-2.84-1.36-5.23-1.36
				c-2.69,0-5.97,0.55-9.18,1.62c-1,0.33-1.55,0.55-2.65,1.14c-0.74,0.37-1.55,0.77-1.81,0.88c-0.26,0.07-0.37,0.11-0.48,0.11
				l-0.26-0.04c-0.22-0.07-0.33-0.22-0.48-0.41c-0.04-0.18-0.07-0.26-0.07-0.33l0.04-0.26c0.15-0.33,0.22-0.37,2.1-1.66
				c2.06-1.33,5.01-3.54,7.41-5.64c1.44-1.25,4.05-3.8,5.01-4.9c2.17-2.58,3.35-4.83,3.46-6.56V8.43c0-0.33-0.04-0.44-0.18-0.74
				c-0.37-0.74-1.18-1.25-2.47-1.51c-0.63-0.15-1.95-0.22-3.13-0.22c-0.55,0-1.07,0-1.44,0.04c-2.87,0.29-6.01,1.11-9.4,2.43
				c-9.44,3.72-16.48,9.77-17.58,15.07c-0.07,0.37-0.11,0.85-0.11,1.36s0.04,1,0.11,1.33c0.37,1.73,1.03,2.87,3.39,5.71
				c0.7,0.85,1.44,1.73,1.62,1.95c0.15,0.26,0.29,0.48,0.37,0.48c0,0,0.33-0.48,0.66-1c2.65-4.39,7.08-10.47,10.58-14.48
				c2.36-2.8,5.23-5.71,5.79-6.01c0.18-0.07,0.33-0.11,0.48-0.11c0.52,0,0.96,0.41,0.96,0.96c0,0.15-0.04,0.29-0.11,0.44
				c-0.11,0.33-0.41,0.7-2.54,3.17c-3.98,4.5-7.56,9.1-11.02,14.08c-0.81,1.11-3.35,5.01-3.5,5.23c-0.04,0.07-0.04,0.11-0.04,0.22
				c0,0.07,0.04,0.22,0.11,0.44c0.07,0.44,0.11,0.81,0.11,1.62c0,1-0.04,1.14-0.22,1.7c-0.11,0.33-0.37,0.88-0.48,1.11
				c-0.18,0.29-0.29,0.55-0.33,0.55C254.12,42.27,255.04,42.05,256.19,41.75z M252.02,42.52c1.07-1.25,1.62-2.43,1.62-3.5l-0.04-0.48
				l-0.63,1.07c-0.7,1.14-1.77,3.24-1.77,3.39c0,0.04,0.04,0.07,0.07,0.07C251.43,43.08,251.76,42.86,252.02,42.52z"/>
			<path style="fill: #224255;" d="M288.99,57.01c-0.37,0-0.7,0-0.81-0.04c-1.11-0.22-1.95-0.66-2.76-1.47c-0.7-0.7-1.03-1.22-1.29-2.06
				c-0.26-0.77-0.37-1.55-0.37-2.4c0-1.14,0.26-2.43,0.74-4.02c1.33-3.94,4.13-8.33,8.26-12.72c2.84-3.06,6.27-5.23,8.04-5.23
				l0.37,0.04c0.81,0.18,1.25,0.81,1.25,1.77c0,0.37-0.04,0.77-0.18,1.22c-0.77,2.76-3.32,6.63-7.11,10.87
				c-2.84,3.21-6.71,6.67-8.51,7.7l-0.55,0.29l-0.04,0.85c0,1.36,0.26,2.1,1,2.87c0.52,0.52,1.18,0.88,1.92,1l0.77,0.07
				c0.81,0,1.81-0.18,2.58-0.44c0.59-0.18,2.1-0.88,2.73-1.29c1.07-0.63,3.02-2.1,4.05-3.06c0.44-0.37,0.59-0.48,0.77-0.48
				c0.26,0.04,0.44,0.22,0.44,0.52c0,0.22-0.85,1.07-2.03,1.95c-4.02,3.1-5.93,3.98-8.74,4.05H288.99z M287.37,48.86
				c1.33-1,2.54-2.1,4.57-4.13c4.53-4.5,7.63-8.81,8.66-11.94c0.22-0.7,0.37-1.33,0.37-1.66c0-0.15-0.04-0.26-0.11-0.26
				c-0.33,0-1.7,0.85-2.84,1.77c-1.99,1.58-4.16,3.94-6.34,6.82c-1.55,2.06-2.62,3.8-3.65,5.9c-0.81,1.58-1.25,2.65-1.62,3.91
				l-0.07,0.29h0.11L287.37,48.86z"/>
			<path style="fill: #224255;" d="M300.71,56.46c-1.84-0.18-2.84-1.07-2.99-2.58v-0.18c0-1.66,1.47-3.76,3.58-5.01c0.77-0.48,1.51-0.7,2.29-0.7
				h0.22c0.52,0,0.81,0.11,1.14,0.37c0.29,0.26,0.44,0.59,0.44,0.96c0,0.74-0.63,1.66-1.77,2.54c-1.03,0.77-2.25,1.22-3.28,1.22
				h-0.55c-0.15,0.41-0.22,0.55-0.22,0.88c0,0.77,0.81,1.14,2.58,1.14h0.22c1.47,0,2.58-0.22,4.42-0.85c2.21-0.77,5.2-2.43,6.23-3.46
				c0.26-0.26,0.44-0.41,0.63-0.41c0.15,0,0.22,0.04,0.33,0.15c0.07,0.07,0.15,0.18,0.15,0.29c0,0.63-1.25,1.66-3.69,2.99
				c-2.76,1.55-5.49,2.47-7.85,2.65c-0.48,0.04-0.77,0.04-1.03,0.04S301.08,56.49,300.71,56.46z M301.41,51.85
				c1.07-0.33,2.25-1.22,2.65-1.99l0.11-0.29c0-0.07-0.07-0.11-0.15-0.11l-0.29,0.04c-0.41,0.11-0.88,0.37-1.44,0.7
				c-0.41,0.29-1.4,1.25-1.7,1.66l-0.15,0.22C300.82,52.03,301.04,52,301.41,51.85z"/>
			<path style="fill: #224255;" d="M323.9,52.29c-0.41-1.99-0.85-2.91-1.36-2.76c-0.37,0-1.84,1.29-4.46,3.91c-1.81,1.84-3.13,2.8-3.91,2.91
				l-0.59,0.04c-1.44,0-2.25-0.7-2.36-2.14c0-0.48,0.15-1,0.41-1.55c0.26-0.52,0.59-1.18,1.07-2.03c0.48-0.81,1-1.22,1.58-1.22
				c0.85,0.07,1.29,0.44,1.29,1.07c0,0.48-0.26,1.07-0.81,1.77c-0.7,0.92-1.03,1.7-1.03,2.36c0,0.11,0.04,0.18,0.15,0.18
				c0.37,0,1.55-0.96,3.54-2.84c1.95-1.88,3.17-3.02,3.65-3.35c0.44-0.33,0.81-0.63,1.07-0.81c0.55-0.41,1.07-0.52,1.51-0.33
				c0.55,0.18,0.96,0.85,1.22,1.92c0.26,1.18,0.7,2.58,1.4,4.24c0.7,1.66,1.84,2.25,3.46,1.81c1.66-0.41,3.02-1,4.13-1.77
				c1.11-0.77,1.92-1.4,2.43-1.88c0.11-0.15,0.22-0.26,0.33-0.37c0.11-0.07,0.22-0.11,0.41-0.11c0.29,0,0.48,0.15,0.52,0.44
				c0,0.63-1,1.55-3.02,2.76c-2.32,1.33-4.16,2.1-5.49,2.29c-1.33,0.18-2.43-0.04-3.28-0.63C324.89,55.61,324.3,54.32,323.9,52.29z"
				/>
			<path style="fill: #224255;" d="M336.8,65.63c-0.15-0.11-0.33-0.37-0.33-0.63c0-1.03,2.69-5.64,6.6-11.76l1.36-2.1
				c-3.35,3.61-5.49,5.34-7.26,5.38c-0.77,0-1.22-0.22-1.62-0.96c-0.07-0.18-0.15-0.55-0.15-0.96v-0.63l0.11-0.55
				c0.74-2.1,2.47-4.2,4.24-5.09c0.77-0.33,1.29-0.48,2.06-0.52l0.66,0.04l0.55,0.15c0.48,0.29,0.96,0.66,1.11,1.11l0.15,0.33
				c1.36-1.62,2.25-2.69,2.76-3.39c1.11-1.33,5.12-6.52,6.08-7.92c1.29-1.7,2.43-3.28,3.72-4.83c1.7-2.17,4.42-5.38,4.75-5.64
				c0.11-0.11,0.26-0.15,0.41-0.15c0.37,0,0.7,0.29,0.7,0.7v0.18c-0.07,0.59-0.63,1.36-3.98,5.68c-4.09,5.34-6.08,8.04-8.51,11.57
				c-4.75,6.86-9.21,13.75-11.2,17.29c-0.26,0.41-0.66,1.22-0.88,1.7c-0.29,0.63-0.48,0.92-0.59,1l-0.41,0.11
				C337.02,65.71,336.91,65.71,336.8,65.63z M342.88,51c-0.29-0.77-0.11-1-0.85-1.07c-1,0.11-1.92,0.59-2.99,1.73
				c-0.96,0.96-1.81,2.36-1.88,3.06l-0.04,0.29C338.82,54.87,340.11,53.91,342.88,51z"/>
			<path style="fill: #224255;" d="M351.17,56.16c-0.7-0.18-1.36-0.7-1.66-1.33c-0.18-0.37-0.29-0.85-0.29-1.33c0-1.22,0.55-2.62,1.51-3.58
				c0.37-0.37,0.55-0.52,0.77-0.59c0.11-0.04,0.22-0.04,0.33-0.04c0.59,0,1,0.44,1,1.03v0.11c-0.04,0.18-0.22,0.55-0.59,1.11
				c-0.74,1.14-1.07,1.81-1.11,2.4v0.29c0,0.18,0.04,0.22,0.22,0.37c0.22,0.22,0.55,0.29,1,0.29c0.77,0,1.81-0.29,2.91-0.81
				c1.33-0.63,3.72-2.14,4.75-2.95c0.37-0.33,0.59-0.44,0.74-0.44c0.29,0,0.48,0.22,0.48,0.48c0,0.11-0.04,0.26-0.15,0.37
				c-0.44,0.59-3.24,2.47-5.12,3.43c-1.51,0.81-3.02,1.25-4.09,1.25C351.61,56.24,351.39,56.2,351.17,56.16z M353.68,47.91
				c-0.22-0.11-0.37-0.37-0.37-0.59l0.04-0.15c0.04-0.33,0.33-0.63,0.63-0.7h0.15c0.41,0,0.7,0.29,0.7,0.7
				c0,0.11-0.04,0.22-0.07,0.37c-0.11,0.29-0.44,0.48-0.7,0.48C353.9,48.02,353.79,47.98,353.68,47.91z"/>
			<path style="fill: #224255;" d="M371.52,52.29c-0.41-1.99-0.85-2.91-1.36-2.76c-0.37,0-1.84,1.29-4.46,3.91c-1.81,1.84-3.13,2.8-3.91,2.91
				l-0.59,0.04c-1.44,0-2.25-0.7-2.36-2.14c0-0.48,0.15-1,0.41-1.55c0.26-0.52,0.59-1.18,1.07-2.03c0.48-0.81,1-1.22,1.58-1.22
				c0.85,0.07,1.29,0.44,1.29,1.07c0,0.48-0.26,1.07-0.81,1.77c-0.7,0.92-1.03,1.7-1.03,2.36c0,0.11,0.04,0.18,0.15,0.18
				c0.37,0,1.55-0.96,3.54-2.84c1.95-1.88,3.17-3.02,3.65-3.35c0.44-0.33,0.81-0.63,1.07-0.81c0.55-0.41,1.07-0.52,1.51-0.33
				c0.55,0.18,0.96,0.85,1.22,1.92c0.26,1.18,0.7,2.58,1.4,4.24c0.7,1.66,1.84,2.25,3.46,1.81c1.66-0.41,3.02-1,4.13-1.77
				c1.11-0.77,1.92-1.4,2.43-1.88c0.11-0.15,0.22-0.26,0.33-0.37c0.11-0.07,0.22-0.11,0.41-0.11c0.29,0,0.48,0.15,0.52,0.44
				c0,0.63-1,1.55-3.02,2.76c-2.32,1.33-4.16,2.1-5.49,2.29c-1.33,0.18-2.43-0.04-3.28-0.63C372.51,55.61,371.92,54.32,371.52,52.29z
				"/>
			<path style="fill: #224255;" d="M370.34,76.73c-0.37-0.07-0.66-0.22-0.88-0.48c-0.29-0.33-0.37-0.63-0.37-1.18c0-2.03,2.43-5.45,7.11-10.06
				c1.73-1.7,2.47-2.4,4.46-4.09c1.47-1.29,2.87-2.4,4.2-3.43l0.7-0.52c1.55-3.1,2.4-4.61,2.4-4.94L387.92,52
				c-0.11,0-0.52,0.41-1.22,1.11c-1.92,1.84-2.47,2.29-3.17,2.36h-0.15c-0.7,0-1.11-0.44-1.11-1.22c0-0.18,0-0.37,0.07-0.59
				c0.26-1.14,1.03-2.4,2.29-3.61c0.96-0.96,1.44-1.29,2.29-1.55c0.37-0.11,0.7-0.18,1.03-0.18c0.41,0,0.81,0.11,1.07,0.33
				c0.11,0.07,0.15,0.07,0.22,0.07l0.11-0.04c0.07-0.07,0.18-0.07,0.29-0.07c0.15,0,0.33,0.07,0.55,0.22
				c0.41,0.33,0.52,0.55,0.52,1.07c0,0.77-0.41,2.03-1.14,3.72l-0.22,0.63v0.04l0.63-0.37c1.73-1.18,4.87-3.06,6.01-3.65
				c0.52-0.26,0.88-0.41,1.14-0.41c0.18,0,0.33,0.07,0.44,0.15c0.15,0.11,0.18,0.26,0.18,0.41c0,0.26-0.15,0.52-0.44,0.52
				c-0.11,0-0.33,0.07-0.52,0.15c-0.96,0.41-4.13,2.36-6.82,4.16l-1.66,1.11c-2.8,5.31-4.57,8.55-7.7,12.61
				c-2.06,2.65-5.09,5.53-7.08,6.74c-1.14,0.7-2.14,1.07-2.87,1.07L370.34,76.73z M371.52,74.96c1.99-1,4.98-3.83,7.37-6.97
				c1.51-2.03,3.46-5.09,4.98-7.89l0.33-0.59c-1.25,0.88-3.87,3.21-6.01,5.2c-4.13,3.91-7.11,7.59-7.67,9.55
				c-0.07,0.22-0.11,0.52-0.11,0.7c0,0.15,0,0.26,0.04,0.29c0.04,0.04,0.07,0.04,0.15,0.04C370.78,75.29,371.11,75.18,371.52,74.96z
				M386.11,52.03c0.74-0.66,1.47-1.44,1.73-1.66c0.22-0.26,0.33-0.41,0.33-0.44s-0.04-0.04-0.11-0.04c-0.96,0-2.62,1.44-3.72,3.24
				l-0.33,0.59l0.04,0.04C384.2,53.77,384.93,53.14,386.11,52.03z"/>
		</g>
		<g>
			<path style="fill: #224255;" d="M398.38,54.4c0-0.65,0.68-1.28,1.23-1.28c0.48,0,0.86,0.3,0.91,0.8c0,0.33-0.25,0.53-0.58,0.86
				c-0.25,0.23-0.53,0.35-0.78,0.35C398.7,55.13,398.38,54.8,398.38,54.4z"/>
			<path style="fill: #224255;" d="M403.43,54.4c0-0.65,0.68-1.28,1.23-1.28c0.48,0,0.86,0.3,0.91,0.8c0,0.33-0.25,0.53-0.58,0.86
				c-0.25,0.23-0.53,0.35-0.78,0.35C403.76,55.13,403.43,54.8,403.43,54.4z"/>
			<path style="fill: #224255;" d="M408.49,54.4c0-0.65,0.68-1.28,1.23-1.28c0.48,0,0.86,0.3,0.91,0.8c0,0.33-0.25,0.53-0.58,0.86
				c-0.25,0.23-0.53,0.35-0.78,0.35C408.82,55.13,408.49,54.8,408.49,54.4z"/>
		</g>
	</g>
</svg>