<?xml version="1.0" encoding="utf-8"?>
<!-- Generator: Adobe Illustrator 25.4.1, SVG Export Plug-In . SVG Version: 6.00 Build 0)  -->
<svg version="1.1" id="Camada_1" xmlns="http://www.w3.org/2000/svg" xmlns:xlink="http://www.w3.org/1999/xlink" x="0px" y="0px"
	 viewBox="0 0 404.49 80" style="enable-background:new 0 0 404.49 80;" xml:space="preserve">
<style type="text/css">
	.st0{fill:#224255;}
</style>
<g>
	<path class="st0" d="M15.6,61.64c0-1.13,0.85-2.51,2.58-4.14c2.16-2.19,6.23-5.03,12.24-8.53c1.27-0.78,2.12-1.17,2.51-1.17
		c0.32,0,0.46,0.18,0.46,0.5l-0.04,0.25c-3.54,1.8-7.01,3.93-10.4,6.37c-4.14,3.04-6.19,5.31-6.19,6.79c0,0.28,0.18,0.5,0.57,0.67
		c0.39,0.18,0.99,0.28,1.8,0.28c0.64,0,1.27-0.04,1.95-0.11c5.91-0.81,13.24-3.26,21.98-7.33c7.75-3.57,11.61-6.23,11.61-7.96
		c0-0.39-0.11-0.71-0.32-0.88c-0.74-0.74-2.83-1.52-6.26-2.34c-2.87-0.39-5.1-0.6-6.69-0.64c-1.59-0.04-2.9-0.11-3.96-0.14
		l-2.12-0.04c-1.03,0-2.97,0.04-5.87,0.18c-4.53,0.21-7.57,0.32-9.06,0.32c-2.02,0-3.5-0.14-4.46-0.46
		c-1.42-0.42-2.12-1.27-2.12-2.51c0-3.04,4.85-8.49,14.51-16.28c7.61-6.05,15.29-11.04,23-14.93C57.79,6.33,62.85,4.7,66.42,4.7
		c0.74,0,1.31,0.07,1.77,0.18c1.7,0.46,2.65,1.42,2.83,2.87l0.04,0.57c0,2.23-1.63,5.17-4.88,8.74c-1.2,1.31-2.41,2.37-3.65,3.26
		c-1.24,0.88-2.23,1.38-2.9,1.49c-0.32,0-0.57-0.04-0.67-0.07c-0.39-0.18-0.6-0.5-0.6-1.03c0-0.78,0.64-2.02,1.95-3.75
		c0.81-1.03,1.59-1.95,2.37-2.76c1.03-1.1,1.8-1.66,2.23-1.66c0.46,0,0.71,0.25,0.71,0.71c0,0.57-0.25,0.85-0.71,0.85
		c-0.18,0-0.42,0.18-0.74,0.5c-1.42,1.45-2.62,2.94-3.65,4.46c-0.46,0.78-0.71,1.2-0.71,1.34c0,0.04,0,0.04,0.04,0.04
		c0.21,0,0.74-0.28,1.56-0.85c2.26-1.59,4.25-3.54,5.95-5.84c1.27-1.77,1.98-3.22,2.23-4.39c0.04-0.18,0.04-0.53,0.04-1.06
		c0-0.88-0.35-1.45-1.03-1.7c-0.42-0.25-1.17-0.35-2.23-0.35c-1.73,0.04-3.65,0.42-5.7,1.1c-4.6,1.49-9.91,4.03-15.89,7.68
		c-6.02,3.65-11.89,7.86-17.66,12.63c-5.52,4.57-9.09,8.28-10.69,11.18c-0.39,0.67-0.57,1.27-0.57,1.88c0,0.85,0.85,1.31,2.51,1.45
		c0.46,0.04,1.17,0.07,2.12,0.11c1.73,0,4.11-0.07,7.08-0.18c4.64-0.21,8.17-0.32,10.62-0.32c2.76,0.07,4.81,0.14,6.16,0.25
		c7.29,0.92,11.4,2.34,12.35,4.21c0.14,0.25,0.21,0.57,0.21,0.96c0,0.81-0.35,1.59-1.06,2.41c-1.52,1.66-4.57,3.61-9.13,5.77
		c-4.57,2.19-9.7,4.21-15.43,6.02c-5.27,1.66-9.38,2.48-12.28,2.48C16.74,63.73,15.6,62.99,15.6,61.64z"/>
	<path class="st0" d="M59.73,55.59c-0.35-0.11-0.74-0.57-0.85-0.92c-0.04-0.18-0.07-0.35-0.07-0.57c0-1.2,0.88-2.8,2.12-3.68
		c0.11-0.11,0.18-0.14,0.18-0.18c0-0.07-0.11-0.11-0.39-0.21c-0.78-0.25-1.2-0.57-1.2-0.96c0-0.21,0.18-0.5,0.42-0.64
		c0.18-0.11,0.46-0.14,0.81-0.14c0.28,0,0.64,0.04,0.96,0.11c0.64,0.18,1.03,0.39,1.52,0.85c0.35,0.35,0.39,0.35,0.88,0.42
		c1.06,0.14,3.82,0.25,5.31,0.25c0.5,0,0.81,0,0.96-0.04l0.21-0.04c0.35,0,0.57,0.18,0.57,0.42l-0.07,0.25
		c-0.18,0.32-0.42,0.35-1.42,0.39h-0.46c-1.2,0-3.61-0.07-4.57-0.14l-0.5-0.04c0.04,0.25,0.07,0.32,0.07,1.03
		c0,0.46-0.04,0.67-0.18,1.03c-0.5,1.2-1.45,2.19-2.62,2.69c-0.32,0.14-0.71,0.18-1.06,0.18C60.12,55.66,59.91,55.66,59.73,55.59z
		 M61.43,54.24c0.28-0.14,0.57-0.35,0.88-0.64c0.6-0.6,0.92-1.27,0.92-1.88l-0.04-0.28c-0.04-0.18-0.07-0.28-0.14-0.28
		c-0.07,0-0.18,0.11-0.39,0.25c-1.03,0.67-2.26,2.37-2.26,2.9c0,0.07,0,0.11,0.07,0.14l0.14,0.04
		C60.83,54.49,61.11,54.39,61.43,54.24z"/>
	<path class="st0" d="M68.37,55.45c-0.25-0.25-0.35-0.53-0.35-0.92c0-0.35,0.11-0.78,0.32-1.31c0.57-1.52,2.37-4,3.4-4.74
		c0.18-0.14,0.39-0.21,0.6-0.21c0.35,0,0.74,0.21,0.88,0.57c0.07,0.14,0.11,0.28,0.11,0.42c0,0.32-0.25,0.67-0.88,1.49
		c-0.78,0.92-1.84,2.34-1.84,2.41c0.07,0,0.46-0.35,0.92-0.74c1.91-1.66,3.08-2.58,4.35-3.4c0.85-0.57,1.17-0.71,1.7-0.85l0.42-0.04
		c0.85,0,1.34,0.5,1.34,1.38c0,0.28-0.14,0.99-0.28,1.31l0.04,0.04c1.24-0.6,1.91-0.92,2.73-0.92c0.25,0,0.5,0.04,0.71,0.11
		c0.57,0.18,1.49,0.67,2.83,1.59c1.98,1.31,2.72,1.59,4.21,1.66c0.67,0,0.85,0,1.42-0.07c1.13-0.25,2.97-1.7,3.65-2.34
		c0.25-0.25,0.42-0.39,0.57-0.39c0.07,0,0.18,0.04,0.25,0.11c0.14,0.07,0.18,0.21,0.18,0.35c0,0.35-2.44,3.79-6.26,3.79h-0.11
		c-1.31,0-2.62-0.18-3.75-0.81c-0.71-0.35-1.7-0.99-2.62-1.66c-0.96-0.71-1.24-0.88-1.66-0.88c-1.2,0-2.55,0.92-4.03,2.69
		c-0.28,0.39-0.6,0.71-0.67,0.74c-0.07,0.04-0.14,0.07-0.25,0.07s-0.28-0.04-0.46-0.18c-0.28-0.18-0.42-0.35-0.42-0.67
		c0-0.53,0.39-1.38,1.34-3.04c0.42-0.78,0.78-1.45,0.78-1.52c0-0.04-0.04-0.04-0.07-0.04c-0.39,0-2.55,1.45-4.07,2.8
		c-0.28,0.25-1.06,0.92-1.7,1.52c-2.02,1.84-2.16,1.95-2.72,1.95C68.69,55.7,68.62,55.66,68.37,55.45z"/>
	<path class="st0" d="M96.18,55.8c-1.77-0.18-2.73-1.03-2.87-2.48v-0.18c0-1.59,1.42-3.61,3.43-4.81c0.74-0.46,1.45-0.67,2.19-0.67
		h0.21c0.5,0,0.78,0.11,1.1,0.35c0.28,0.25,0.42,0.57,0.42,0.92c0,0.71-0.6,1.59-1.7,2.44c-0.99,0.74-2.16,1.17-3.15,1.17H95.3
		c-0.14,0.39-0.21,0.53-0.21,0.85c0,0.74,0.78,1.1,2.48,1.1h0.21c1.42,0,2.48-0.21,4.25-0.81c2.12-0.74,4.99-2.34,5.98-3.33
		c0.25-0.25,0.42-0.39,0.6-0.39c0.14,0,0.21,0.04,0.32,0.14c0.07,0.07,0.14,0.18,0.14,0.28c0,0.6-1.2,1.59-3.54,2.87
		c-2.65,1.49-5.27,2.37-7.54,2.55c-0.46,0.04-0.74,0.04-0.99,0.04S96.54,55.84,96.18,55.8z M96.86,51.38
		c1.03-0.32,2.16-1.17,2.55-1.91l0.11-0.28c0-0.07-0.07-0.11-0.14-0.11l-0.28,0.04c-0.39,0.11-0.85,0.35-1.38,0.67
		c-0.39,0.28-1.34,1.2-1.63,1.59l-0.14,0.21C96.29,51.55,96.5,51.52,96.86,51.38z"/>
	<path class="st0" d="M99.26,63.91c-0.11-0.11-0.14-0.21-0.14-0.32c0-0.18,0.14-0.46,0.5-0.92c0.71-0.88,3.08-4.25,4.78-6.65
		c1.42-2.05,2.83-4.14,7.43-11.11c1.91-2.9,3.11-4.64,4.53-6.69c-3.22-0.04-6.19-0.11-7.54-0.14l-2.65-0.04
		c0.64,0.25,1.03,0.39,1.03,0.81c0,0.28-0.11,0.46-0.42,0.6c-0.18,0.07-0.25,0.11-0.32,0.11l-0.18-0.04c-0.07,0-0.18-0.11-0.28-0.21
		c-0.14-0.11-0.32-0.18-0.78-0.25c-1.2-0.18-2.55-0.28-4.32-0.35c-3.22-0.11-4-0.18-4.21-0.28c-0.25-0.11-0.35-0.28-0.35-0.5
		s0.14-0.46,0.46-0.6c0.32-0.18,2.72-0.32,6.37-0.39h1.34c2.51,0,6.09,0.07,11.43,0.21c0.39,0.04,0.78,0.04,1.13,0.04l5.59-7.71
		c4.18-5.73,4.03-5.56,4.25-5.7c0.14-0.11,0.32-0.14,0.53-0.14c0.18,0,0.35,0.04,0.5,0.14c0.21,0.14,0.42,0.53,0.42,0.78
		c0,0.64-1.06,2.16-6.9,9.73l-2.23,2.97c6.69,0.18,15,0.39,19.04,0.46c6.12,0.11,5.95,0.11,6.12,0.28c0.11,0.07,0.18,0.21,0.18,0.32
		c0,0.11-0.07,0.25-0.18,0.35l-0.14,0.14c-5.56-0.11-7.89-0.11-18.12-0.35c-1.98-0.07-4.81-0.14-7.68-0.18
		c-2.83,3.75-4.81,6.51-7.89,10.94c-0.74,1.1-1.98,2.9-2.8,4l-3.11,4.39c-2.23,3.11-4.07,5.63-4.46,6.09
		c-0.25,0.25-0.42,0.35-0.6,0.35C99.48,64.05,99.37,64.01,99.26,63.91z"/>
	<path class="st0" d="M113.35,55.52c-0.11-0.04-0.28-0.14-0.39-0.25c-0.14-0.14-0.21-0.32-0.21-0.53c0-0.5,0.32-1.27,0.99-2.44
		c0.81-1.45,3.11-5.03,4.88-7.71c3.89-5.84,8.67-11.75,12.67-15.64c2.41-2.34,3.96-3.43,5.06-3.47c0.78,0,1.17,0.21,1.24,0.96
		c0,0.78-0.39,1.84-1.63,3.61c-1.56,2.37-3.65,4.81-6.83,7.96c-3.18,3.18-6.3,5.84-8,6.83c-0.46,0.28-0.53,0.35-1.2,1.31
		c-0.78,1.06-2.69,3.82-2.69,3.86c2.19-2.09,3.82-3.47,5.38-3.96c0.5-0.18,0.88-0.25,1.31-0.25c0.46,0,0.92,0.11,1.42,0.35
		c1.03,0.5,1.88,1.49,2.83,3.26c0.88,1.66,1.31,2.19,2.12,2.55c0.35,0.18,0.46,0.18,1.06,0.18c0.85,0,1.45-0.18,2.26-0.64
		c0.92-0.5,2.72-1.91,2.9-1.91h0.07c0.14,0,0.28,0.07,0.28,0.32c0,0.28-0.28,0.78-1.31,1.7c-1.38,1.2-2.19,1.56-3.26,1.84
		c-0.39,0.11-0.85,0.14-1.31,0.14c-0.42,0-0.85-0.04-1.2-0.14c-0.96-0.28-1.49-0.64-2.23-1.34c-0.6-0.6-0.74-0.81-1.38-1.91
		c-1.31-2.19-1.8-2.72-2.62-2.83c-1.13,0-2.51,0.64-4.53,2.44c-1.27,1.13-2.44,2.48-3.96,4.46c-0.5,0.67-0.99,1.24-1.06,1.27
		c-0.11,0.04-0.21,0.07-0.32,0.07S113.49,55.55,113.35,55.52z M123.22,42.07c4.28-3.61,8.81-8.28,11.08-11.47
		c0.88-1.27,1.91-3.11,1.91-3.4c0-0.04,0-0.04-0.04-0.04c-0.81,0-8.03,7.82-12.95,14.37c-0.46,0.64-0.71,0.99-0.71,1.06
		C122.58,42.6,122.8,42.42,123.22,42.07z"/>
	<path class="st0" d="M135.86,55.52c-0.67-0.18-1.31-0.67-1.59-1.27c-0.18-0.35-0.28-0.81-0.28-1.27c0-1.17,0.53-2.51,1.45-3.43
		c0.35-0.35,0.53-0.5,0.74-0.57c0.11-0.04,0.21-0.04,0.32-0.04c0.57,0,0.96,0.42,0.96,0.99v0.11c-0.04,0.18-0.21,0.53-0.57,1.06
		c-0.71,1.1-1.03,1.73-1.06,2.3v0.28c0,0.18,0.04,0.21,0.21,0.35c0.21,0.21,0.53,0.28,0.96,0.28c0.74,0,1.73-0.28,2.8-0.78
		c1.27-0.6,3.57-2.05,4.57-2.83c0.35-0.32,0.57-0.42,0.71-0.42c0.28,0,0.46,0.21,0.46,0.46c0,0.11-0.04,0.25-0.14,0.35
		c-0.42,0.57-3.11,2.37-4.92,3.29c-1.45,0.78-2.9,1.2-3.93,1.2C136.28,55.59,136.07,55.55,135.86,55.52z M138.26,47.59
		c-0.21-0.11-0.35-0.35-0.35-0.57l0.04-0.14c0.04-0.32,0.32-0.6,0.6-0.67h0.14c0.39,0,0.67,0.28,0.67,0.67
		c0,0.11-0.04,0.21-0.07,0.35c-0.11,0.28-0.42,0.46-0.67,0.46C138.47,47.7,138.37,47.66,138.26,47.59z"/>
	<path class="st0" d="M155.39,51.8c-0.39-1.91-0.81-2.8-1.31-2.65c-0.35,0-1.77,1.24-4.28,3.75c-1.73,1.77-3.01,2.69-3.75,2.8
		l-0.57,0.04c-1.38,0-2.16-0.67-2.26-2.05c0-0.46,0.14-0.96,0.39-1.49c0.25-0.5,0.57-1.13,1.03-1.95c0.46-0.78,0.96-1.17,1.52-1.17
		c0.81,0.07,1.24,0.42,1.24,1.03c0,0.46-0.25,1.03-0.78,1.7c-0.67,0.88-0.99,1.63-0.99,2.26c0,0.11,0.04,0.18,0.14,0.18
		c0.35,0,1.49-0.92,3.4-2.72c1.88-1.8,3.04-2.9,3.5-3.22c0.42-0.32,0.78-0.6,1.03-0.78c0.53-0.39,1.03-0.5,1.45-0.32
		c0.53,0.18,0.92,0.81,1.17,1.84c0.25,1.13,0.67,2.48,1.34,4.07c0.67,1.59,1.77,2.16,3.33,1.73c1.59-0.39,2.9-0.96,3.96-1.7
		s1.84-1.34,2.34-1.8c0.11-0.14,0.21-0.25,0.32-0.35c0.11-0.07,0.21-0.11,0.39-0.11c0.28,0,0.46,0.14,0.5,0.42
		c0,0.6-0.96,1.49-2.9,2.65c-2.23,1.27-4,2.02-5.27,2.19c-1.27,0.18-2.34-0.04-3.15-0.6C156.35,54.99,155.78,53.75,155.39,51.8z"/>
	<path class="st0" d="M154.26,75.27c-0.35-0.07-0.64-0.21-0.85-0.46c-0.28-0.32-0.35-0.6-0.35-1.13c0-1.95,2.34-5.24,6.83-9.66
		c1.66-1.63,2.37-2.3,4.28-3.93c1.42-1.24,2.76-2.3,4.03-3.29l0.67-0.5c1.49-2.97,2.3-4.42,2.3-4.74l-0.04-0.04
		c-0.11,0-0.5,0.39-1.17,1.06c-1.84,1.77-2.37,2.19-3.04,2.26h-0.14c-0.67,0-1.06-0.42-1.06-1.17c0-0.18,0-0.35,0.07-0.57
		c0.25-1.1,0.99-2.3,2.19-3.47c0.92-0.92,1.38-1.24,2.19-1.49c0.35-0.11,0.67-0.18,0.99-0.18c0.39,0,0.78,0.11,1.03,0.32
		c0.11,0.07,0.14,0.07,0.21,0.07l0.11-0.04c0.07-0.07,0.18-0.07,0.28-0.07c0.14,0,0.32,0.07,0.53,0.21c0.39,0.32,0.5,0.53,0.5,1.03
		c0,0.74-0.39,1.95-1.1,3.57l-0.21,0.6v0.04l0.6-0.35c1.66-1.13,4.67-2.94,5.77-3.5c0.5-0.25,0.85-0.39,1.1-0.39
		c0.18,0,0.32,0.07,0.42,0.14c0.14,0.11,0.18,0.25,0.18,0.39c0,0.25-0.14,0.5-0.42,0.5c-0.11,0-0.32,0.07-0.5,0.14
		c-0.92,0.39-3.96,2.26-6.55,4l-1.59,1.06c-2.69,5.1-4.39,8.21-7.4,12.1c-1.98,2.55-4.88,5.31-6.79,6.48
		c-1.1,0.67-2.05,1.03-2.76,1.03L154.26,75.27z M155.39,73.57c1.91-0.96,4.78-3.68,7.08-6.69c1.45-1.95,3.33-4.88,4.78-7.57
		l0.32-0.57c-1.2,0.85-3.72,3.08-5.77,4.99c-3.96,3.75-6.83,7.29-7.36,9.17c-0.07,0.21-0.11,0.5-0.11,0.67c0,0.14,0,0.25,0.04,0.28
		s0.07,0.04,0.14,0.04C154.68,73.88,155,73.78,155.39,73.57z M169.4,51.55c0.71-0.64,1.42-1.38,1.66-1.59
		c0.21-0.25,0.32-0.39,0.32-0.42c0-0.04-0.04-0.04-0.11-0.04c-0.92,0-2.51,1.38-3.57,3.11l-0.32,0.57l0.04,0.04
		C167.56,53.22,168.27,52.62,169.4,51.55z"/>
	<path class="st0" d="M204.37,55.52c-0.67-0.18-1.31-0.67-1.59-1.27c-0.18-0.35-0.28-0.81-0.28-1.27c0-1.17,0.53-2.51,1.45-3.43
		c0.35-0.35,0.53-0.5,0.74-0.57c0.11-0.04,0.21-0.04,0.32-0.04c0.57,0,0.96,0.42,0.96,0.99v0.11c-0.04,0.18-0.21,0.53-0.57,1.06
		c-0.71,1.1-1.03,1.73-1.06,2.3v0.28c0,0.18,0.04,0.21,0.21,0.35c0.21,0.21,0.53,0.28,0.96,0.28c0.74,0,1.73-0.28,2.8-0.78
		c1.27-0.6,3.57-2.05,4.57-2.83c0.35-0.32,0.57-0.42,0.71-0.42c0.28,0,0.46,0.21,0.46,0.46c0,0.11-0.04,0.25-0.14,0.35
		c-0.42,0.57-3.11,2.37-4.92,3.29c-1.45,0.78-2.9,1.2-3.93,1.2C204.79,55.59,204.58,55.55,204.37,55.52z M206.78,47.59
		c-0.21-0.11-0.35-0.35-0.35-0.57l0.04-0.14c0.04-0.32,0.32-0.6,0.6-0.67h0.14c0.39,0,0.67,0.28,0.67,0.67
		c0,0.11-0.04,0.21-0.07,0.35c-0.11,0.28-0.42,0.46-0.67,0.46C206.99,47.7,206.88,47.66,206.78,47.59z"/>
	<path class="st0" d="M208.69,60.83c-1.17-0.21-1.84-1.03-1.84-2.05c0-0.39,0.07-0.78,0.28-1.2c0.67-1.42,2.58-3.01,5.34-4.42
		l1.03-0.53v-1.45c0-1.63,0.04-2.02,0.35-2.58c0.53-0.85,1.52-1.49,2.26-1.49c0.18,0,0.32,0.04,0.46,0.11
		c0.35,0.18,0.5,0.42,0.5,0.78c0,0.39-0.14,0.57-0.64,0.85c-0.18,0.11-0.42,0.25-0.53,0.35c-0.35,0.32-0.39,0.46-0.39,1.52
		c0,0.78,0.04,0.99,0.11,0.99l0.04-0.04c0.07,0,0.67-0.21,1.34-0.46c2.26-0.74,4.21-1.17,5.59-1.17c0.88,0,1.2,0.07,1.34,0.28
		l0.07,0.25c0,0.11-0.07,0.25-0.14,0.32c-0.11,0.11-0.28,0.11-1.1,0.14c-0.81,0-1.17,0.04-2.02,0.21c-1.24,0.25-2.37,0.57-3.54,0.96
		c-1.66,0.57-1.73,0.6-1.73,0.99c0,0.42-0.25,1.49-0.5,2.26c-0.74,2.26-2.37,4.25-4.11,5.03c-0.57,0.25-1.24,0.39-1.77,0.39
		L208.69,60.83z M209.64,59.27c1.31-0.42,2.55-1.8,3.18-3.47c0.18-0.53,0.5-1.63,0.5-1.84v-0.04h-0.04c-0.11,0-0.74,0.32-1.52,0.78
		c-2.23,1.34-3.72,2.9-3.72,3.89c0,0.53,0.32,0.81,0.81,0.81C209.11,59.41,209.36,59.38,209.64,59.27z"/>
	<path class="st0" d="M235.51,62.28l-0.71-0.07c-2.62-0.42-4.21-2.02-4.21-4.18l0.04-0.6c0.6-4.78,7.22-10.3,16.07-13.41l1.34-0.46
		c0.14-1.38,0.99-3.47,2.69-6.48c0.35-0.53,0.6-1.06,0.6-1.17c-0.11-0.28-1.03-1.56-2.09-2.83c-1.42-1.66-1.91-2.37-2.44-3.26
		c-0.78-1.38-1.17-2.8-1.17-4.25c0-2.3,0.99-4.67,2.97-7.04c2.69-3.22,6.62-6.16,11.4-8.49c4.49-2.16,8.49-3.47,12.46-4.07
		c0.67-0.07,1.31-0.11,2.83-0.11c1.7,0,1.98,0.04,2.69,0.14c1.27,0.28,2.16,0.74,2.87,1.38c0.71,0.74,1.06,1.7,1.06,2.83
		c0,1.24-0.39,2.65-1.2,4.14c-1.63,3.08-5.27,6.87-9.73,10.19c-0.32,0.21-0.53,0.42-0.53,0.42h0.04c0.11,0,0.5-0.07,0.92-0.18
		c1.84-0.35,3.26-0.53,4.88-0.53l0.99,0.04c2.16,0.04,3.15,0.21,4.39,0.81c1.24,0.6,2.05,1.59,2.26,2.83l0.04,0.57
		c0,4.81-8.28,13.94-20.38,22.33c-9.27,6.48-18.37,10.58-25.06,11.4c-0.53,0.04-1.38,0.07-2.05,0.07
		C236.08,62.31,235.69,62.31,235.51,62.28z M239.09,60.26c5.31-0.96,11.96-3.79,19.07-8.17c5.24-3.26,11.04-7.64,15.57-11.78
		c0.57-0.5,1.03-0.96,1.03-0.99h-0.11c-0.32,0-1.38,0.07-2.65,0.21c-4.85,0.53-13.02,2.23-19.78,4.07
		c-0.81,0.25-0.88,0.28-1.31,0.64c-0.57,0.53-1.13,0.85-1.52,0.88h-0.21c-0.14,0-0.28-0.04-0.5-0.14l-0.39-0.18
		c-5.41,1.73-9.91,4.32-12.88,7.29c-2.09,2.05-3.22,4.07-3.22,5.7V58c0,0.57,0.14,0.99,0.46,1.34c0.53,0.57,1.03,0.81,2.12,1.03
		c0.28,0.07,0.78,0.07,1.34,0.07C237.11,60.44,238.31,60.37,239.09,60.26z M254.76,41.68c1.17-0.25,3.04-0.74,4.11-0.99
		c6.94-1.56,12.99-2.51,16-2.51h1.06c2.72-2.76,4.71-5.1,5.95-7.5c0.46-0.92,0.67-1.7,0.67-2.37c0-0.64-0.21-1.13-0.6-1.56
		c-0.88-0.88-2.72-1.31-5.03-1.31c-2.58,0-5.73,0.53-8.81,1.56c-0.96,0.32-1.49,0.53-2.55,1.1c-0.71,0.35-1.49,0.74-1.73,0.85
		c-0.25,0.07-0.35,0.11-0.46,0.11l-0.25-0.04c-0.21-0.07-0.32-0.21-0.46-0.39c-0.04-0.18-0.07-0.25-0.07-0.32l0.04-0.25
		c0.14-0.32,0.21-0.35,2.02-1.59c1.98-1.27,4.81-3.4,7.11-5.41c1.38-1.2,3.89-3.64,4.81-4.71c2.09-2.48,3.22-4.64,3.33-6.3V9.69
		c0-0.32-0.04-0.42-0.18-0.71c-0.35-0.71-1.13-1.2-2.37-1.45c-0.6-0.14-1.88-0.21-3.01-0.21c-0.53,0-1.03,0-1.38,0.04
		c-2.76,0.28-5.77,1.06-9.02,2.34c-9.06,3.57-15.82,9.38-16.88,14.47c-0.07,0.35-0.11,0.81-0.11,1.31s0.04,0.96,0.11,1.27
		c0.35,1.66,0.99,2.76,3.26,5.49c0.67,0.81,1.38,1.66,1.56,1.88c0.14,0.25,0.28,0.46,0.35,0.46c0,0,0.32-0.46,0.64-0.96
		c2.55-4.21,6.79-10.05,10.16-13.91c2.26-2.69,5.03-5.49,5.56-5.77c0.18-0.07,0.32-0.11,0.46-0.11c0.5,0,0.92,0.39,0.92,0.92
		c0,0.14-0.04,0.28-0.11,0.42c-0.11,0.32-0.39,0.67-2.44,3.04c-3.82,4.32-7.25,8.74-10.58,13.52c-0.78,1.06-3.22,4.81-3.36,5.03
		c-0.04,0.07-0.04,0.11-0.04,0.21c0,0.07,0.04,0.21,0.11,0.42c0.07,0.42,0.11,0.78,0.11,1.56c0,0.96-0.04,1.1-0.21,1.63
		c-0.11,0.32-0.35,0.85-0.46,1.06c-0.18,0.28-0.28,0.53-0.32,0.53C252.78,42.18,253.67,41.96,254.76,41.68z M250.77,42.42
		c1.03-1.2,1.56-2.34,1.56-3.36l-0.04-0.46l-0.6,1.03c-0.67,1.1-1.7,3.11-1.7,3.26c0,0.04,0.04,0.07,0.07,0.07
		C250.2,42.95,250.52,42.74,250.77,42.42z"/>
	<path class="st0" d="M286.26,56.33c-0.35,0-0.67,0-0.78-0.04c-1.06-0.21-1.88-0.64-2.65-1.42c-0.67-0.67-0.99-1.17-1.24-1.98
		c-0.25-0.74-0.35-1.49-0.35-2.3c0-1.1,0.25-2.34,0.71-3.86c1.27-3.79,3.96-8,7.93-12.21c2.72-2.94,6.02-5.03,7.71-5.03l0.35,0.04
		c0.78,0.18,1.2,0.78,1.2,1.7c0,0.35-0.04,0.74-0.18,1.17c-0.74,2.65-3.18,6.37-6.83,10.44c-2.72,3.08-6.44,6.41-8.17,7.4
		l-0.53,0.28l-0.04,0.81c0,1.31,0.25,2.02,0.96,2.76c0.5,0.5,1.13,0.85,1.84,0.96l0.74,0.07c0.78,0,1.73-0.18,2.48-0.42
		c0.57-0.18,2.02-0.85,2.62-1.24c1.03-0.6,2.9-2.02,3.89-2.94c0.42-0.35,0.57-0.46,0.74-0.46c0.25,0.04,0.42,0.21,0.42,0.5
		c0,0.21-0.81,1.03-1.95,1.88c-3.86,2.97-5.7,3.82-8.39,3.89H286.26z M284.7,48.51c1.27-0.96,2.44-2.02,4.39-3.96
		c4.35-4.32,7.33-8.46,8.32-11.47c0.21-0.67,0.35-1.27,0.35-1.59c0-0.14-0.04-0.25-0.11-0.25c-0.32,0-1.63,0.81-2.72,1.7
		c-1.91,1.52-4,3.79-6.09,6.55c-1.49,1.98-2.51,3.64-3.5,5.66c-0.78,1.52-1.2,2.55-1.56,3.75l-0.07,0.28h0.11L284.7,48.51z"/>
	<path class="st0" d="M297.51,55.8c-1.77-0.18-2.72-1.03-2.87-2.48v-0.18c0-1.59,1.42-3.61,3.43-4.81c0.74-0.46,1.45-0.67,2.19-0.67
		h0.21c0.5,0,0.78,0.11,1.1,0.35c0.28,0.25,0.42,0.57,0.42,0.92c0,0.71-0.6,1.59-1.7,2.44c-0.99,0.74-2.16,1.17-3.15,1.17h-0.53
		c-0.14,0.39-0.21,0.53-0.21,0.85c0,0.74,0.78,1.1,2.48,1.1h0.21c1.42,0,2.48-0.21,4.25-0.81c2.12-0.74,4.99-2.34,5.98-3.33
		c0.25-0.25,0.42-0.39,0.6-0.39c0.14,0,0.21,0.04,0.32,0.14c0.07,0.07,0.14,0.18,0.14,0.28c0,0.6-1.2,1.59-3.54,2.87
		c-2.65,1.49-5.27,2.37-7.54,2.55c-0.46,0.04-0.74,0.04-0.99,0.04C298.08,55.84,297.87,55.84,297.51,55.8z M298.19,51.38
		c1.03-0.32,2.16-1.17,2.55-1.91l0.11-0.28c0-0.07-0.07-0.11-0.14-0.11l-0.28,0.04c-0.39,0.11-0.85,0.35-1.38,0.67
		c-0.39,0.28-1.34,1.2-1.63,1.59l-0.14,0.21C297.62,51.55,297.83,51.52,298.19,51.38z"/>
	<path class="st0" d="M319.77,51.8c-0.39-1.91-0.81-2.8-1.31-2.65c-0.35,0-1.77,1.24-4.28,3.75c-1.73,1.77-3.01,2.69-3.75,2.8
		l-0.57,0.04c-1.38,0-2.16-0.67-2.26-2.05c0-0.46,0.14-0.96,0.39-1.49c0.25-0.5,0.57-1.13,1.03-1.95c0.46-0.78,0.96-1.17,1.52-1.17
		c0.81,0.07,1.24,0.42,1.24,1.03c0,0.46-0.25,1.03-0.78,1.7c-0.67,0.88-0.99,1.63-0.99,2.26c0,0.11,0.04,0.18,0.14,0.18
		c0.35,0,1.49-0.92,3.4-2.72c1.88-1.8,3.04-2.9,3.5-3.22c0.42-0.32,0.78-0.6,1.03-0.78c0.53-0.39,1.03-0.5,1.45-0.32
		c0.53,0.18,0.92,0.81,1.17,1.84c0.25,1.13,0.67,2.48,1.34,4.07c0.67,1.59,1.77,2.16,3.33,1.73c1.59-0.39,2.9-0.96,3.96-1.7
		c1.06-0.74,1.84-1.34,2.34-1.8c0.11-0.14,0.21-0.25,0.32-0.35c0.11-0.07,0.21-0.11,0.39-0.11c0.28,0,0.46,0.14,0.5,0.42
		c0,0.6-0.96,1.49-2.9,2.65c-2.23,1.27-4,2.02-5.27,2.19c-1.27,0.18-2.34-0.04-3.15-0.6C320.73,54.99,320.16,53.75,319.77,51.8z"/>
	<path class="st0" d="M332.16,64.61c-0.14-0.11-0.32-0.35-0.32-0.6c0-0.99,2.58-5.41,6.33-11.29l1.31-2.02
		c-3.22,3.47-5.27,5.13-6.97,5.17c-0.74,0-1.17-0.21-1.56-0.92c-0.07-0.18-0.14-0.53-0.14-0.92v-0.6l0.11-0.53
		c0.71-2.02,2.37-4.03,4.07-4.88c0.74-0.32,1.24-0.46,1.98-0.5l0.64,0.04l0.53,0.14c0.46,0.28,0.92,0.64,1.06,1.06l0.14,0.32
		c1.31-1.56,2.16-2.58,2.65-3.26c1.06-1.27,4.92-6.26,5.84-7.61c1.24-1.63,2.34-3.15,3.57-4.64c1.63-2.09,4.25-5.17,4.57-5.41
		c0.11-0.11,0.25-0.14,0.39-0.14c0.35,0,0.67,0.28,0.67,0.67v0.18c-0.07,0.57-0.6,1.31-3.82,5.45c-3.93,5.13-5.84,7.71-8.17,11.11
		c-4.57,6.58-8.85,13.2-10.76,16.6c-0.25,0.39-0.64,1.17-0.85,1.63c-0.28,0.6-0.46,0.88-0.57,0.96l-0.39,0.11
		C332.37,64.68,332.27,64.68,332.16,64.61z M338,50.56c-0.28-0.74-0.11-0.96-0.81-1.03c-0.96,0.11-1.84,0.57-2.87,1.66
		c-0.92,0.92-1.73,2.26-1.8,2.94l-0.04,0.28C334.11,54.28,335.35,53.36,338,50.56z"/>
	<path class="st0" d="M345.96,55.52c-0.67-0.18-1.31-0.67-1.59-1.27c-0.18-0.35-0.28-0.81-0.28-1.27c0-1.17,0.53-2.51,1.45-3.43
		c0.35-0.35,0.53-0.5,0.74-0.57c0.11-0.04,0.21-0.04,0.32-0.04c0.57,0,0.96,0.42,0.96,0.99v0.11c-0.04,0.18-0.21,0.53-0.57,1.06
		c-0.71,1.1-1.03,1.73-1.06,2.3v0.28c0,0.18,0.04,0.21,0.21,0.35c0.21,0.21,0.53,0.28,0.96,0.28c0.74,0,1.73-0.28,2.8-0.78
		c1.27-0.6,3.57-2.05,4.57-2.83c0.35-0.32,0.57-0.42,0.71-0.42c0.28,0,0.46,0.21,0.46,0.46c0,0.11-0.04,0.25-0.14,0.35
		c-0.42,0.57-3.11,2.37-4.92,3.29c-1.45,0.78-2.9,1.2-3.93,1.2C346.39,55.59,346.17,55.55,345.96,55.52z M348.37,47.59
		c-0.21-0.11-0.35-0.35-0.35-0.57l0.04-0.14c0.04-0.32,0.32-0.6,0.6-0.67h0.14c0.39,0,0.67,0.28,0.67,0.67
		c0,0.11-0.04,0.21-0.07,0.35c-0.11,0.28-0.42,0.46-0.67,0.46C348.58,47.7,348.48,47.66,348.37,47.59z"/>
	<path class="st0" d="M365.5,51.8c-0.39-1.91-0.81-2.8-1.31-2.65c-0.35,0-1.77,1.24-4.28,3.75c-1.73,1.77-3.01,2.69-3.75,2.8
		l-0.57,0.04c-1.38,0-2.16-0.67-2.26-2.05c0-0.46,0.14-0.96,0.39-1.49c0.25-0.5,0.57-1.13,1.03-1.95c0.46-0.78,0.96-1.17,1.52-1.17
		c0.81,0.07,1.24,0.42,1.24,1.03c0,0.46-0.25,1.03-0.78,1.7c-0.67,0.88-0.99,1.63-0.99,2.26c0,0.11,0.04,0.18,0.14,0.18
		c0.35,0,1.49-0.92,3.4-2.72c1.88-1.8,3.04-2.9,3.5-3.22c0.42-0.32,0.78-0.6,1.03-0.78c0.53-0.39,1.03-0.5,1.45-0.32
		c0.53,0.18,0.92,0.81,1.17,1.84c0.25,1.13,0.67,2.48,1.34,4.07c0.67,1.59,1.77,2.16,3.33,1.73c1.59-0.39,2.9-0.96,3.96-1.7
		c1.06-0.74,1.84-1.34,2.34-1.8c0.11-0.14,0.21-0.25,0.32-0.35c0.11-0.07,0.21-0.11,0.39-0.11c0.28,0,0.46,0.14,0.5,0.42
		c0,0.6-0.96,1.49-2.9,2.65c-2.23,1.27-4,2.02-5.27,2.19c-1.27,0.18-2.34-0.04-3.15-0.6C366.45,54.99,365.89,53.75,365.5,51.8z"/>
	<path class="st0" d="M364.37,75.27c-0.35-0.07-0.64-0.21-0.85-0.46c-0.28-0.32-0.35-0.6-0.35-1.13c0-1.95,2.34-5.24,6.83-9.66
		c1.66-1.63,2.37-2.3,4.28-3.93c1.42-1.24,2.76-2.3,4.03-3.29l0.67-0.5c1.49-2.97,2.3-4.42,2.3-4.74l-0.04-0.04
		c-0.11,0-0.5,0.39-1.17,1.06c-1.84,1.77-2.37,2.19-3.04,2.26h-0.14c-0.67,0-1.06-0.42-1.06-1.17c0-0.18,0-0.35,0.07-0.57
		c0.25-1.1,0.99-2.3,2.19-3.47c0.92-0.92,1.38-1.24,2.19-1.49c0.35-0.11,0.67-0.18,0.99-0.18c0.39,0,0.78,0.11,1.03,0.32
		c0.11,0.07,0.14,0.07,0.21,0.07l0.11-0.04c0.07-0.07,0.18-0.07,0.28-0.07c0.14,0,0.32,0.07,0.53,0.21c0.39,0.32,0.5,0.53,0.5,1.03
		c0,0.74-0.39,1.95-1.1,3.57l-0.21,0.6v0.04l0.6-0.35c1.66-1.13,4.67-2.94,5.77-3.5c0.5-0.25,0.85-0.39,1.1-0.39
		c0.18,0,0.32,0.07,0.42,0.14c0.14,0.11,0.18,0.25,0.18,0.39c0,0.25-0.14,0.5-0.42,0.5c-0.11,0-0.32,0.07-0.5,0.14
		c-0.92,0.39-3.96,2.26-6.55,4l-1.59,1.06c-2.69,5.1-4.39,8.21-7.4,12.1c-1.98,2.55-4.88,5.31-6.79,6.48
		c-1.1,0.67-2.05,1.03-2.76,1.03L364.37,75.27z M365.5,73.57c1.91-0.96,4.78-3.68,7.08-6.69c1.45-1.95,3.33-4.88,4.78-7.57
		l0.32-0.57c-1.2,0.85-3.72,3.08-5.77,4.99c-3.96,3.75-6.83,7.29-7.36,9.17c-0.07,0.21-0.11,0.5-0.11,0.67c0,0.14,0,0.25,0.04,0.28
		c0.04,0.04,0.07,0.04,0.14,0.04C364.79,73.88,365.11,73.78,365.5,73.57z M379.51,51.55c0.71-0.64,1.42-1.38,1.66-1.59
		c0.21-0.25,0.32-0.39,0.32-0.42c0-0.04-0.04-0.04-0.11-0.04c-0.92,0-2.51,1.38-3.57,3.11l-0.32,0.57l0.04,0.04
		C377.67,53.22,378.38,52.62,379.51,51.55z"/>
</g>
</svg>